<svg width="275" height="178" viewBox="0 0 275 178" fill="none" xmlns="http://www.w3.org/2000/svg">
<rect x="33.2539" y="91.7983" width="32.4053" height="28.37" fill="#10566B"/>
<rect x="146.354" y="85.228" width="32.4053" height="28.37" fill="#10566B"/>
<rect x="154.315" y="41.0796" width="16.4834" height="21.1004" fill="#296D7C"/>
<mask id="path-4-outside-1_2016_1184" maskUnits="userSpaceOnUse" x="163.428" y="-0.109697" width="104.552" height="97.5463" fill="black">
<rect fill="white" x="163.428" y="-0.109697" width="104.552" height="97.5463"/>
<path d="M256.84 65.8946C254.311 87.2985 234.549 89.7099 210.853 86.9101C187.157 84.1103 168.538 77.1311 171.063 55.7595C173.592 34.3556 196.348 6.60165 220.044 9.40149C243.74 12.2013 259.369 44.4907 256.84 65.8946Z"/>
</mask>
<path d="M256.84 65.8946C254.311 87.2985 234.549 89.7099 210.853 86.9101C187.157 84.1103 168.538 77.1311 171.063 55.7595C173.592 34.3556 196.348 6.60165 220.044 9.40149C243.74 12.2013 259.369 44.4907 256.84 65.8946Z" fill="url(#paint0_linear_2016_1184)"/>
<path d="M256.84 65.8946C254.311 87.2985 234.549 89.7099 210.853 86.9101C187.157 84.1103 168.538 77.1311 171.063 55.7595C173.592 34.3556 196.348 6.60165 220.044 9.40149C243.74 12.2013 259.369 44.4907 256.84 65.8946Z" stroke="white" stroke-width="8" stroke-linejoin="round" mask="url(#path-4-outside-1_2016_1184)"/>
<g opacity="0.1">
<mask id="path-5-outside-2_2016_1184" maskUnits="userSpaceOnUse" x="163.428" y="-0.109697" width="104.552" height="97.5463" fill="black">
<rect fill="white" x="163.428" y="-0.109697" width="104.552" height="97.5463"/>
<path d="M219.586 13.2755C224.493 13.8553 229.257 15.9239 233.717 19.4624C237.88 22.7367 241.757 27.3193 244.922 32.6689C251.061 43.0508 254.162 55.5942 252.998 65.4407C251.995 73.9312 248.042 79.1271 240.524 81.8068C233.895 84.166 224.353 84.5771 211.375 83.0437C198.398 81.5103 189.215 78.8868 183.318 75.0476C176.631 70.6895 173.998 64.7154 175.001 56.2248C176.165 46.3784 182.104 34.903 190.493 26.2377C194.817 21.7731 199.652 18.2526 204.468 16.0065C209.532 13.5933 214.647 12.6919 219.586 13.2755ZM220.044 9.40149C196.348 6.60165 173.592 34.3556 171.063 55.7595C168.534 77.1634 187.189 84.1141 210.885 86.9139C234.581 89.7138 254.343 87.3023 256.872 65.8984C259.369 44.4907 243.708 12.1975 220.044 9.40149Z"/>
</mask>
<path d="M219.586 13.2755C224.493 13.8553 229.257 15.9239 233.717 19.4624C237.88 22.7367 241.757 27.3193 244.922 32.6689C251.061 43.0508 254.162 55.5942 252.998 65.4407C251.995 73.9312 248.042 79.1271 240.524 81.8068C233.895 84.166 224.353 84.5771 211.375 83.0437C198.398 81.5103 189.215 78.8868 183.318 75.0476C176.631 70.6895 173.998 64.7154 175.001 56.2248C176.165 46.3784 182.104 34.903 190.493 26.2377C194.817 21.7731 199.652 18.2526 204.468 16.0065C209.532 13.5933 214.647 12.6919 219.586 13.2755ZM220.044 9.40149C196.348 6.60165 173.592 34.3556 171.063 55.7595C168.534 77.1634 187.189 84.1141 210.885 86.9139C234.581 89.7138 254.343 87.3023 256.872 65.8984C259.369 44.4907 243.708 12.1975 220.044 9.40149Z" fill="black"/>
<path d="M219.586 13.2755C224.493 13.8553 229.257 15.9239 233.717 19.4624C237.88 22.7367 241.757 27.3193 244.922 32.6689C251.061 43.0508 254.162 55.5942 252.998 65.4407C251.995 73.9312 248.042 79.1271 240.524 81.8068C233.895 84.166 224.353 84.5771 211.375 83.0437C198.398 81.5103 189.215 78.8868 183.318 75.0476C176.631 70.6895 173.998 64.7154 175.001 56.2248C176.165 46.3784 182.104 34.903 190.493 26.2377C194.817 21.7731 199.652 18.2526 204.468 16.0065C209.532 13.5933 214.647 12.6919 219.586 13.2755ZM220.044 9.40149C196.348 6.60165 173.592 34.3556 171.063 55.7595C168.534 77.1634 187.189 84.1141 210.885 86.9139C234.581 89.7138 254.343 87.3023 256.872 65.8984C259.369 44.4907 243.708 12.1975 220.044 9.40149Z" stroke="white" stroke-width="8" stroke-linejoin="round" mask="url(#path-5-outside-2_2016_1184)"/>
</g>
<mask id="path-6-outside-3_2016_1184" maskUnits="userSpaceOnUse" x="159.19" y="-4.44173" width="113.318" height="105.437" fill="black">
<rect fill="white" x="159.19" y="-4.44173" width="113.318" height="105.437"/>
<path d="M220.044 9.4012C243.708 12.1972 259.369 44.4904 256.84 65.8943C254.311 87.2982 234.549 89.7097 210.853 86.9098C187.157 84.11 168.501 77.1593 171.03 55.7554C173.592 34.3553 196.348 6.60137 220.044 9.4012ZM220.502 5.52719C214.142 4.77574 207.625 5.90435 201.117 8.89982C195.369 11.5595 189.888 15.5601 184.819 20.7878C180.158 25.6055 176.079 31.3103 172.982 37.2949C169.874 43.3762 167.864 49.5873 167.192 55.2692C165.842 66.6975 169.805 75.5457 179.015 81.544C186.037 86.1054 196.033 89.0541 210.431 90.7554C224.83 92.4566 235.233 91.951 243.13 89.1195C253.451 85.429 259.399 77.7519 260.75 66.3236C261.425 60.6094 260.917 54.1008 259.308 47.4948C257.724 40.9572 255.055 34.4551 251.645 28.6838C247.966 22.4224 243.536 17.2507 238.566 13.3246C232.935 8.89491 226.861 6.27865 220.502 5.52719Z"/>
</mask>
<path d="M220.044 9.4012C243.708 12.1972 259.369 44.4904 256.84 65.8943C254.311 87.2982 234.549 89.7097 210.853 86.9098C187.157 84.11 168.501 77.1593 171.03 55.7554C173.592 34.3553 196.348 6.60137 220.044 9.4012ZM220.502 5.52719C214.142 4.77574 207.625 5.90435 201.117 8.89982C195.369 11.5595 189.888 15.5601 184.819 20.7878C180.158 25.6055 176.079 31.3103 172.982 37.2949C169.874 43.3762 167.864 49.5873 167.192 55.2692C165.842 66.6975 169.805 75.5457 179.015 81.544C186.037 86.1054 196.033 89.0541 210.431 90.7554C224.83 92.4566 235.233 91.951 243.13 89.1195C253.451 85.429 259.399 77.7519 260.75 66.3236C261.425 60.6094 260.917 54.1008 259.308 47.4948C257.724 40.9572 255.055 34.4551 251.645 28.6838C247.966 22.4224 243.536 17.2507 238.566 13.3246C232.935 8.89491 226.861 6.27865 220.502 5.52719Z" fill="url(#paint1_linear_2016_1184)"/>
<path d="M220.044 9.4012C243.708 12.1972 259.369 44.4904 256.84 65.8943C254.311 87.2982 234.549 89.7097 210.853 86.9098C187.157 84.11 168.501 77.1593 171.03 55.7554C173.592 34.3553 196.348 6.60137 220.044 9.4012ZM220.502 5.52719C214.142 4.77574 207.625 5.90435 201.117 8.89982C195.369 11.5595 189.888 15.5601 184.819 20.7878C180.158 25.6055 176.079 31.3103 172.982 37.2949C169.874 43.3762 167.864 49.5873 167.192 55.2692C165.842 66.6975 169.805 75.5457 179.015 81.544C186.037 86.1054 196.033 89.0541 210.431 90.7554C224.83 92.4566 235.233 91.951 243.13 89.1195C253.451 85.429 259.399 77.7519 260.75 66.3236C261.425 60.6094 260.917 54.1008 259.308 47.4948C257.724 40.9572 255.055 34.4551 251.645 28.6838C247.966 22.4224 243.536 17.2507 238.566 13.3246C232.935 8.89491 226.861 6.27865 220.502 5.52719Z" stroke="white" stroke-width="8" stroke-linejoin="round" mask="url(#path-6-outside-3_2016_1184)"/>
<g opacity="0.1">
<mask id="path-7-outside-4_2016_1184" maskUnits="userSpaceOnUse" x="163.467" y="32.3351" width="100.68" height="64.7743" fill="black">
<rect fill="white" x="163.467" y="32.3351" width="100.68" height="64.7743"/>
<path d="M214.002 60.5384C198.312 58.6846 185.196 49.7368 177.438 37.2651C174.032 43.3767 171.765 49.8193 171.067 55.7272C168.538 77.1311 187.193 84.0818 210.889 86.8817C234.585 89.6815 254.315 87.2662 256.84 65.8946C257.542 59.9544 256.835 53.1932 254.947 46.456C244.532 56.7479 229.692 62.3922 214.002 60.5384Z"/>
</mask>
<path d="M214.002 60.5384C198.312 58.6846 185.196 49.7368 177.438 37.2651C174.032 43.3767 171.765 49.8193 171.067 55.7272C168.538 77.1311 187.193 84.0818 210.889 86.8817C234.585 89.6815 254.315 87.2662 256.84 65.8946C257.542 59.9544 256.835 53.1932 254.947 46.456C244.532 56.7479 229.692 62.3922 214.002 60.5384Z" fill="black"/>
<path d="M214.002 60.5384C198.312 58.6846 185.196 49.7368 177.438 37.2651C174.032 43.3767 171.765 49.8193 171.067 55.7272C168.538 77.1311 187.193 84.0818 210.889 86.8817C234.585 89.6815 254.315 87.2662 256.84 65.8946C257.542 59.9544 256.835 53.1932 254.947 46.456C244.532 56.7479 229.692 62.3922 214.002 60.5384Z" stroke="white" stroke-width="8" stroke-linejoin="round" mask="url(#path-7-outside-4_2016_1184)"/>
</g>
<mask id="path-8-outside-5_2016_1184" maskUnits="userSpaceOnUse" x="196.814" y="21.4161" width="44.5976" height="54.2309" fill="black">
<rect fill="white" x="196.814" y="21.4161" width="44.5976" height="54.2309"/>
<path d="M232.33 46.4347L213.162 28.5884C210.419 26.0384 205.97 27.6732 205.531 31.3858L201.9 62.1196C201.461 65.8322 205.439 68.4626 208.668 66.6183L231.468 53.7308C234.167 52.2166 234.602 48.5363 232.33 46.4347Z"/>
</mask>
<path d="M232.33 46.4347L213.162 28.5884C210.419 26.0384 205.97 27.6732 205.531 31.3858L201.9 62.1196C201.461 65.8322 205.439 68.4626 208.668 66.6183L231.468 53.7308C234.167 52.2166 234.602 48.5363 232.33 46.4347Z" fill="#F2F2F2"/>
<path d="M232.33 46.4347L213.162 28.5884C210.419 26.0384 205.97 27.6732 205.531 31.3858L201.9 62.1196C201.461 65.8322 205.439 68.4626 208.668 66.6183L231.468 53.7308C234.167 52.2166 234.602 48.5363 232.33 46.4347Z" stroke="white" stroke-width="8" stroke-linejoin="round" mask="url(#path-8-outside-5_2016_1184)"/>
<rect x="41.875" y="36.3276" width="19.2644" height="18.7821" fill="#296D7C"/>
<mask id="path-10-outside-6_2016_1184" maskUnits="userSpaceOnUse" x="0" y="61.834" width="275" height="116" fill="black">
<rect fill="white" y="61.834" width="275" height="116"/>
<path d="M18.9775 157.361C17.4723 154.836 17.256 152.938 17.0397 139.757C16.9337 132.681 17.0397 122.343 17.3619 116.909C18.1167 98.2857 19.622 91.7747 23.7051 88.9276C25.1044 88.0447 26.0711 87.6607 29.9424 86.928C34.0255 86.1687 34.8863 86.1555 36.7137 86.5218C38.7575 86.9633 41.1191 88.5568 41.1191 89.5279C41.1191 89.7398 41.9799 89.294 43.1629 88.4818C47.246 85.6522 52.084 84.1514 57.1382 84.1911C64.8763 84.2353 69.498 87.0118 72.8307 93.4566C76.596 100.519 76.702 111.692 73.2633 118.785C70.0365 125.226 65.3089 129.017 57.999 130.849C54.8782 131.754 51.1173 131.794 47.0341 131.163C45.7408 130.907 44.2399 130.792 43.8074 130.854C43.5204 130.893 43.2335 130.933 42.9466 130.973C42.9819 134.372 43.0216 137.771 43.0569 141.17C43.1629 151.044 43.1629 151.366 42.3021 152.889C41.2295 155.083 38.9694 157.233 36.6034 158.345C30.9091 160.151 22.4162 162.543 18.9775 157.361ZM51.8721 113.007C53.6996 111.268 54.5559 109.123 54.5559 106.434C54.5559 102.351 52.5166 99.4819 49.718 99.8483C48.2171 100.043 46.3897 101.579 45.5289 103.525C43.9133 106.977 44.6681 111.921 47.1401 113.841C48.3231 114.755 50.3669 114.38 51.8721 113.007ZM92.39 152.598C85.7246 152.082 82.82 150.731 81.2089 144.193C80.4584 141.033 79.814 126.899 80.1362 120.529C80.2422 117.832 80.3481 112.769 80.4584 109.105C80.6703 101.565 81.2089 93.3462 81.8533 88.8879C82.6082 82.4917 84.5416 80.5847 91.4233 79.8873C98.7332 79.1766 102.922 80.4921 104.75 83.838C106.365 86.8794 106.471 93.9686 104.75 106.734C103.571 116.684 103.999 123.433 105.933 124.307C107.226 124.894 110.449 124.528 114.964 123.195C120.663 121.615 122.596 121.588 124.102 122.846C125.713 124.21 126.357 126.678 126.574 131.834C127.112 141.505 124.314 147.001 117.652 149.34C112.815 150.991 108.405 151.795 101.417 152.267C97.6562 152.571 93.573 152.73 92.39 152.598ZM135.027 150.779C131.156 149.614 130.405 146.833 131.266 136.504C132.078 127.424 134.237 117.404 137.106 108.421C139.913 99.6276 143.396 91.8321 146.958 86.8882C151.364 80.726 155.985 78.5498 163.944 78.8632C170.605 79.1369 174.909 80.9953 179.208 85.458C181.358 87.6342 182.109 88.7598 184.475 93.6552C189.096 102.801 191.679 111.833 193.718 125.764C194.685 132.513 195.334 141.92 195.007 144.794C194.685 148.533 194.256 149.565 192.429 151.027C190.279 152.792 188.019 153.017 181.036 152.545C174.799 152.249 172.649 151.618 170.283 149.345C168.455 147.535 168.244 146.021 168.672 139.051C169.1 132.196 168.994 125.521 168.455 123.561C167.383 119.858 164.266 118.534 161.9 120.922C159.857 122.996 159.534 124.603 159.106 134.155C158.784 143.174 158.351 146.277 156.957 148.06C155.985 149.323 153.302 150.753 151.041 151.137C148.618 151.503 141.03 151.424 137.106 151.088C136.157 151.004 135.424 150.903 135.027 150.779ZM166.844 106.611C171.038 103.477 169.21 93.92 164.589 93.7214C160.395 93.5537 158.351 103.706 162.006 106.629C163.406 107.754 165.445 107.732 166.844 106.611ZM219.528 156.187C216.522 155.282 214.584 154.196 213.079 152.413C210.713 149.676 210.717 149.464 210.39 134.16C210.284 121.893 210.178 120.057 209.534 118.803C208.563 116.764 205.341 113.29 200.074 109.03C194.698 104.651 190.827 100.696 189.644 98.3431C188.249 95.9771 188.355 93.1917 189.86 90.7286C191.365 88.261 196.309 84.1603 199.214 83.039C204.374 80.9423 208.241 81.6795 211.684 85.3918C214.156 87.9256 216.089 91.8101 218.455 98.6521C220.389 104.589 220.711 105.273 221.677 105.719C223.827 106.637 225.121 105.194 226.948 99.4201C227.482 97.7736 228.776 94.9397 229.848 93.152C232.753 87.9653 236.191 85.6699 240.169 86.2835C245.329 87.0604 253.822 92.918 256.294 97.3543C257.477 99.3936 257.477 101.866 256.51 103.733C255.327 105.891 251.133 109.643 244.362 114.57C239.524 118.203 237.697 119.77 236.946 121.05C236.62 121.61 236.297 122.171 235.975 122.736C236.121 126.519 236.262 130.302 236.408 134.085C237.052 149.879 236.73 153.048 234.042 155.344C231.676 157.361 225.121 157.732 219.528 156.187Z"/>
</mask>
<path d="M18.9775 157.361C17.4723 154.836 17.256 152.938 17.0397 139.757C16.9337 132.681 17.0397 122.343 17.3619 116.909C18.1167 98.2857 19.622 91.7747 23.7051 88.9276C25.1044 88.0447 26.0711 87.6607 29.9424 86.928C34.0255 86.1687 34.8863 86.1555 36.7137 86.5218C38.7575 86.9633 41.1191 88.5568 41.1191 89.5279C41.1191 89.7398 41.9799 89.294 43.1629 88.4818C47.246 85.6522 52.084 84.1514 57.1382 84.1911C64.8763 84.2353 69.498 87.0118 72.8307 93.4566C76.596 100.519 76.702 111.692 73.2633 118.785C70.0365 125.226 65.3089 129.017 57.999 130.849C54.8782 131.754 51.1173 131.794 47.0341 131.163C45.7408 130.907 44.2399 130.792 43.8074 130.854C43.5204 130.893 43.2335 130.933 42.9466 130.973C42.9819 134.372 43.0216 137.771 43.0569 141.17C43.1629 151.044 43.1629 151.366 42.3021 152.889C41.2295 155.083 38.9694 157.233 36.6034 158.345C30.9091 160.151 22.4162 162.543 18.9775 157.361ZM51.8721 113.007C53.6996 111.268 54.5559 109.123 54.5559 106.434C54.5559 102.351 52.5166 99.4819 49.718 99.8483C48.2171 100.043 46.3897 101.579 45.5289 103.525C43.9133 106.977 44.6681 111.921 47.1401 113.841C48.3231 114.755 50.3669 114.38 51.8721 113.007ZM92.39 152.598C85.7246 152.082 82.82 150.731 81.2089 144.193C80.4584 141.033 79.814 126.899 80.1362 120.529C80.2422 117.832 80.3481 112.769 80.4584 109.105C80.6703 101.565 81.2089 93.3462 81.8533 88.8879C82.6082 82.4917 84.5416 80.5847 91.4233 79.8873C98.7332 79.1766 102.922 80.4921 104.75 83.838C106.365 86.8794 106.471 93.9686 104.75 106.734C103.571 116.684 103.999 123.433 105.933 124.307C107.226 124.894 110.449 124.528 114.964 123.195C120.663 121.615 122.596 121.588 124.102 122.846C125.713 124.21 126.357 126.678 126.574 131.834C127.112 141.505 124.314 147.001 117.652 149.34C112.815 150.991 108.405 151.795 101.417 152.267C97.6562 152.571 93.573 152.73 92.39 152.598ZM135.027 150.779C131.156 149.614 130.405 146.833 131.266 136.504C132.078 127.424 134.237 117.404 137.106 108.421C139.913 99.6276 143.396 91.8321 146.958 86.8882C151.364 80.726 155.985 78.5498 163.944 78.8632C170.605 79.1369 174.909 80.9953 179.208 85.458C181.358 87.6342 182.109 88.7598 184.475 93.6552C189.096 102.801 191.679 111.833 193.718 125.764C194.685 132.513 195.334 141.92 195.007 144.794C194.685 148.533 194.256 149.565 192.429 151.027C190.279 152.792 188.019 153.017 181.036 152.545C174.799 152.249 172.649 151.618 170.283 149.345C168.455 147.535 168.244 146.021 168.672 139.051C169.1 132.196 168.994 125.521 168.455 123.561C167.383 119.858 164.266 118.534 161.9 120.922C159.857 122.996 159.534 124.603 159.106 134.155C158.784 143.174 158.351 146.277 156.957 148.06C155.985 149.323 153.302 150.753 151.041 151.137C148.618 151.503 141.03 151.424 137.106 151.088C136.157 151.004 135.424 150.903 135.027 150.779ZM166.844 106.611C171.038 103.477 169.21 93.92 164.589 93.7214C160.395 93.5537 158.351 103.706 162.006 106.629C163.406 107.754 165.445 107.732 166.844 106.611ZM219.528 156.187C216.522 155.282 214.584 154.196 213.079 152.413C210.713 149.676 210.717 149.464 210.39 134.16C210.284 121.893 210.178 120.057 209.534 118.803C208.563 116.764 205.341 113.29 200.074 109.03C194.698 104.651 190.827 100.696 189.644 98.3431C188.249 95.9771 188.355 93.1917 189.86 90.7286C191.365 88.261 196.309 84.1603 199.214 83.039C204.374 80.9423 208.241 81.6795 211.684 85.3918C214.156 87.9256 216.089 91.8101 218.455 98.6521C220.389 104.589 220.711 105.273 221.677 105.719C223.827 106.637 225.121 105.194 226.948 99.4201C227.482 97.7736 228.776 94.9397 229.848 93.152C232.753 87.9653 236.191 85.6699 240.169 86.2835C245.329 87.0604 253.822 92.918 256.294 97.3543C257.477 99.3936 257.477 101.866 256.51 103.733C255.327 105.891 251.133 109.643 244.362 114.57C239.524 118.203 237.697 119.77 236.946 121.05C236.62 121.61 236.297 122.171 235.975 122.736C236.121 126.519 236.262 130.302 236.408 134.085C237.052 149.879 236.73 153.048 234.042 155.344C231.676 157.361 225.121 157.732 219.528 156.187Z" fill="white"/>
<path d="M18.9775 157.361C17.4723 154.836 17.256 152.938 17.0397 139.757C16.9337 132.681 17.0397 122.343 17.3619 116.909C18.1167 98.2857 19.622 91.7747 23.7051 88.9276C25.1044 88.0447 26.0711 87.6607 29.9424 86.928C34.0255 86.1687 34.8863 86.1555 36.7137 86.5218C38.7575 86.9633 41.1191 88.5568 41.1191 89.5279C41.1191 89.7398 41.9799 89.294 43.1629 88.4818C47.246 85.6522 52.084 84.1514 57.1382 84.1911C64.8763 84.2353 69.498 87.0118 72.8307 93.4566C76.596 100.519 76.702 111.692 73.2633 118.785C70.0365 125.226 65.3089 129.017 57.999 130.849C54.8782 131.754 51.1173 131.794 47.0341 131.163C45.7408 130.907 44.2399 130.792 43.8074 130.854C43.5204 130.893 43.2335 130.933 42.9466 130.973C42.9819 134.372 43.0216 137.771 43.0569 141.17C43.1629 151.044 43.1629 151.366 42.3021 152.889C41.2295 155.083 38.9694 157.233 36.6034 158.345C30.9091 160.151 22.4162 162.543 18.9775 157.361ZM51.8721 113.007C53.6996 111.268 54.5559 109.123 54.5559 106.434C54.5559 102.351 52.5166 99.4819 49.718 99.8483C48.2171 100.043 46.3897 101.579 45.5289 103.525C43.9133 106.977 44.6681 111.921 47.1401 113.841C48.3231 114.755 50.3669 114.38 51.8721 113.007ZM92.39 152.598C85.7246 152.082 82.82 150.731 81.2089 144.193C80.4584 141.033 79.814 126.899 80.1362 120.529C80.2422 117.832 80.3481 112.769 80.4584 109.105C80.6703 101.565 81.2089 93.3462 81.8533 88.8879C82.6082 82.4917 84.5416 80.5847 91.4233 79.8873C98.7332 79.1766 102.922 80.4921 104.75 83.838C106.365 86.8794 106.471 93.9686 104.75 106.734C103.571 116.684 103.999 123.433 105.933 124.307C107.226 124.894 110.449 124.528 114.964 123.195C120.663 121.615 122.596 121.588 124.102 122.846C125.713 124.21 126.357 126.678 126.574 131.834C127.112 141.505 124.314 147.001 117.652 149.34C112.815 150.991 108.405 151.795 101.417 152.267C97.6562 152.571 93.573 152.73 92.39 152.598ZM135.027 150.779C131.156 149.614 130.405 146.833 131.266 136.504C132.078 127.424 134.237 117.404 137.106 108.421C139.913 99.6276 143.396 91.8321 146.958 86.8882C151.364 80.726 155.985 78.5498 163.944 78.8632C170.605 79.1369 174.909 80.9953 179.208 85.458C181.358 87.6342 182.109 88.7598 184.475 93.6552C189.096 102.801 191.679 111.833 193.718 125.764C194.685 132.513 195.334 141.92 195.007 144.794C194.685 148.533 194.256 149.565 192.429 151.027C190.279 152.792 188.019 153.017 181.036 152.545C174.799 152.249 172.649 151.618 170.283 149.345C168.455 147.535 168.244 146.021 168.672 139.051C169.1 132.196 168.994 125.521 168.455 123.561C167.383 119.858 164.266 118.534 161.9 120.922C159.857 122.996 159.534 124.603 159.106 134.155C158.784 143.174 158.351 146.277 156.957 148.06C155.985 149.323 153.302 150.753 151.041 151.137C148.618 151.503 141.03 151.424 137.106 151.088C136.157 151.004 135.424 150.903 135.027 150.779ZM166.844 106.611C171.038 103.477 169.21 93.92 164.589 93.7214C160.395 93.5537 158.351 103.706 162.006 106.629C163.406 107.754 165.445 107.732 166.844 106.611ZM219.528 156.187C216.522 155.282 214.584 154.196 213.079 152.413C210.713 149.676 210.717 149.464 210.39 134.16C210.284 121.893 210.178 120.057 209.534 118.803C208.563 116.764 205.341 113.29 200.074 109.03C194.698 104.651 190.827 100.696 189.644 98.3431C188.249 95.9771 188.355 93.1917 189.86 90.7286C191.365 88.261 196.309 84.1603 199.214 83.039C204.374 80.9423 208.241 81.6795 211.684 85.3918C214.156 87.9256 216.089 91.8101 218.455 98.6521C220.389 104.589 220.711 105.273 221.677 105.719C223.827 106.637 225.121 105.194 226.948 99.4201C227.482 97.7736 228.776 94.9397 229.848 93.152C232.753 87.9653 236.191 85.6699 240.169 86.2835C245.329 87.0604 253.822 92.918 256.294 97.3543C257.477 99.3936 257.477 101.866 256.51 103.733C255.327 105.891 251.133 109.643 244.362 114.57C239.524 118.203 237.697 119.77 236.946 121.05C236.62 121.61 236.297 122.171 235.975 122.736C236.121 126.519 236.262 130.302 236.408 134.085C237.052 149.879 236.73 153.048 234.042 155.344C231.676 157.361 225.121 157.732 219.528 156.187Z" stroke="white" stroke-width="34" stroke-linejoin="round" mask="url(#path-10-outside-6_2016_1184)"/>
<mask id="path-11-outside-7_2016_1184" maskUnits="userSpaceOnUse" x="20.2742" y="14.6367" width="172.245" height="77.7096" fill="black">
<rect fill="white" x="20.2742" y="14.6367" width="172.245" height="77.7096"/>
<path d="M39.159 78.6758C37.1118 78.6368 36.6188 77.2861 36.6798 71.7201C36.8451 62.0191 39.6079 49.5953 42.9678 43.2723C45.0269 39.3766 47.3396 37.5559 51.4835 36.5549C54.9518 35.7278 57.2543 36.0879 59.6435 37.808C60.8467 38.6529 61.2782 39.1359 62.6866 41.3712C65.4318 45.5175 67.0992 49.9049 68.6831 56.9434C69.4387 60.3587 70.1225 65.2227 70.0582 66.7775C70.0364 68.7945 69.8467 69.399 68.9606 70.4307C67.9049 71.6682 66.7444 72.109 63.0971 72.8713C59.856 73.6241 58.7116 73.6084 57.4009 72.7517C56.3829 72.0583 56.2125 71.2953 56.1809 67.5671C56.143 63.8878 55.8468 60.3916 55.4886 59.4384C54.7996 57.6462 53.1258 57.4063 51.9893 59.0081C51.0121 60.3951 50.9007 61.2847 51.0294 66.3819C51.2043 71.1754 51.0925 72.8789 50.437 74.0203C49.9807 74.8278 48.6372 75.9694 47.4835 76.5066C45.942 77.1778 40.2456 78.6957 39.159 78.6758ZM54.0206 50.7541C56.0787 48.4863 54.7724 43.7245 52.3709 44.292C50.1891 44.8148 49.5041 50.4637 51.5129 51.4647C52.2771 51.8563 53.3398 51.5388 54.0206 50.7541ZM76.4941 70.2263C75.1892 70.2703 74.6046 70.0889 73.7676 69.4893C72.457 68.6326 72.4652 68.7483 71.6923 57.0208C70.9979 46.5377 70.9733 43.7296 71.4044 42.5654C72.1795 40.6501 75.4843 39.1563 78.1862 39.5462C79.5075 39.7336 80.8903 40.7886 81.4254 41.9134C81.5623 42.2041 81.6985 42.4851 81.825 42.7668C81.9974 42.4639 82.169 42.1514 82.331 41.8395C82.9322 40.6148 83.617 39.8881 84.815 39.154C87.1047 37.6934 89.9719 38.0909 92.1661 40.0671C92.5088 40.3916 92.8515 40.7162 93.1943 41.0407C93.5299 40.5809 93.8566 40.1314 94.1832 39.6819C95.5822 37.8194 96.5658 37.207 98.7123 37.0065C100.128 36.8771 100.531 36.9648 101.41 37.3386C103.528 38.2446 104.843 39.9827 105.484 42.6018C105.579 42.9731 105.674 43.4992 105.787 44.1404C106.403 47.9143 107.183 55.7656 107.257 59.5489C107.311 61.948 107.287 62.9865 107.171 63.6729C107.107 63.9972 107.028 64.2451 106.922 64.5239C106.678 65.0547 106.323 65.6419 106.05 65.8938C105.353 66.4566 103.619 66.8702 100.908 67.1689C98.877 67.3613 98.4211 67.3548 97.6039 67.0348C96.313 66.5934 95.8333 66.2495 95.371 65.3327C94.855 64.4778 94.6463 62.2156 94.83 60.0225C95.032 57.2661 95.0577 52.0224 94.8199 51.1284C94.6339 50.0079 94.2595 49.6469 93.471 49.7318C93.0771 49.7791 92.8064 49.9243 92.6037 50.3456C92.3032 50.8901 92.3394 51.4011 92.7101 55.8125C93.1492 61.1881 93.1152 61.5296 91.9813 62.3463C91.1099 62.9022 88.6225 63.2142 87.857 62.8033C86.6818 62.218 86.5306 61.7249 86.4836 57.0967C86.4056 52.713 86.2058 51.5353 85.6076 51.1611C84.7761 50.6386 84.1891 51.2422 84.0113 52.6985C83.9523 53.5069 84.0841 55.3676 84.5419 59.366C85.3133 66.2876 85.2517 66.9218 83.8606 68.2122C82.6336 69.3552 79.4462 70.1818 76.4941 70.2263ZM113.925 66.1399C112.61 66.0393 112.021 65.7904 111.177 65.0944C109.856 64.0931 109.864 64.2088 109.092 52.491C108.407 42.0072 108.375 39.2286 108.81 38.1222C109.593 36.313 112.926 35.2145 115.649 35.9129C116.982 36.2545 118.375 37.4638 118.914 38.6368C119.051 38.9372 119.189 39.2375 119.326 39.5281C119.49 39.2452 119.663 38.952 119.827 38.669C120.434 37.5215 121.125 36.8814 122.333 36.292C124.642 35.111 127.533 35.8363 129.744 38.0535C130.089 38.407 130.434 38.7701 130.789 39.1325C131.119 38.7216 131.448 38.3106 131.778 37.8997C133.199 36.2196 134.191 35.723 136.355 35.7731C137.772 35.8084 138.188 35.9339 139.075 36.4137C141.201 37.5614 142.525 39.4345 143.17 42.1115C143.808 44.6825 144.858 54.7141 144.947 59.1164C145.021 62.6187 144.944 63.1765 144.606 64.0143C144.36 64.5065 144.002 65.0551 143.736 65.2678C143.024 65.7542 141.275 65.9557 138.542 65.9459C136.494 65.8972 136.034 65.8329 135.211 65.4262C133.919 64.8394 133.435 64.4377 132.97 63.4727C132.45 62.5696 132.231 60.2984 132.418 58.1535C132.623 55.4357 132.652 50.2401 132.423 49.3262C132.226 48.1968 131.859 47.7965 131.063 47.785C130.656 47.7848 130.384 47.901 130.189 48.2927C129.876 48.7994 129.912 49.3103 130.283 53.7314C130.722 59.107 130.688 59.4485 129.544 60.1206C128.665 60.5705 126.167 60.5925 125.386 60.0956C124.201 59.3753 124.049 58.8725 124.005 54.2829C123.928 49.9184 123.728 48.7312 123.125 48.2894C122.287 47.6802 121.704 48.206 121.514 49.6244C121.464 50.4225 121.597 52.2928 122.045 56.3015C122.829 63.261 122.757 63.8863 121.354 65.0031C120.116 65.9919 116.902 66.4425 113.925 66.1399ZM170.24 68.3313C168.152 67.8591 167.137 67.0687 166.511 65.4852C166.241 64.952 166.043 64.4816 166.039 64.4238C165.98 64.4182 165.6 64.6583 165.052 64.9879C163.748 65.8651 161.694 66.5532 160.056 66.6887C155.803 66.9707 151.185 64.4202 148.917 60.4532C147.476 57.8907 146.949 56.058 146.857 53.119C146.815 50.0698 147.187 48.0668 148.157 45.7502C149.135 43.5589 150.175 42.0996 151.777 40.6393C157.127 35.8806 162.875 38.2348 164.23 38.8945C165.817 39.6832 166.343 39.8591 166.323 39.5795C166.299 39.2421 167.262 38.3405 167.863 38.0751C168.311 37.9658 168.996 37.927 170.199 38.084C173.358 38.49 174.9 39.3303 175.989 41.1715C176.635 42.2207 176.651 42.4424 177.06 45.7562C177.528 50.0252 178.259 62.6761 178.177 64.7942C177.97 68.2971 176.938 68.9128 172.361 68.5976C171.505 68.542 170.586 68.4327 170.24 68.3313ZM163.707 55.5779C165.806 53.8886 165.136 48.5391 162.707 47.219C161.758 46.6662 161.091 46.8297 160.242 47.7038C159.506 48.531 159.291 49.4667 159.428 51.3949C159.532 52.8604 159.605 53.204 160.194 54.2765C160.65 55.1066 161.029 55.5351 161.441 55.7385C162.262 56.1066 163.112 56.0754 163.707 55.5779Z"/>
</mask>
<path d="M39.159 78.6758C37.1118 78.6368 36.6188 77.2861 36.6798 71.7201C36.8451 62.0191 39.6079 49.5953 42.9678 43.2723C45.0269 39.3766 47.3396 37.5559 51.4835 36.5549C54.9518 35.7278 57.2543 36.0879 59.6435 37.808C60.8467 38.6529 61.2782 39.1359 62.6866 41.3712C65.4318 45.5175 67.0992 49.9049 68.6831 56.9434C69.4387 60.3587 70.1225 65.2227 70.0582 66.7775C70.0364 68.7945 69.8467 69.399 68.9606 70.4307C67.9049 71.6682 66.7444 72.109 63.0971 72.8713C59.856 73.6241 58.7116 73.6084 57.4009 72.7517C56.3829 72.0583 56.2125 71.2953 56.1809 67.5671C56.143 63.8878 55.8468 60.3916 55.4886 59.4384C54.7996 57.6462 53.1258 57.4063 51.9893 59.0081C51.0121 60.3951 50.9007 61.2847 51.0294 66.3819C51.2043 71.1754 51.0925 72.8789 50.437 74.0203C49.9807 74.8278 48.6372 75.9694 47.4835 76.5066C45.942 77.1778 40.2456 78.6957 39.159 78.6758ZM54.0206 50.7541C56.0787 48.4863 54.7724 43.7245 52.3709 44.292C50.1891 44.8148 49.5041 50.4637 51.5129 51.4647C52.2771 51.8563 53.3398 51.5388 54.0206 50.7541ZM76.4941 70.2263C75.1892 70.2703 74.6046 70.0889 73.7676 69.4893C72.457 68.6326 72.4652 68.7483 71.6923 57.0208C70.9979 46.5377 70.9733 43.7296 71.4044 42.5654C72.1795 40.6501 75.4843 39.1563 78.1862 39.5462C79.5075 39.7336 80.8903 40.7886 81.4254 41.9134C81.5623 42.2041 81.6985 42.4851 81.825 42.7668C81.9974 42.4639 82.169 42.1514 82.331 41.8395C82.9322 40.6148 83.617 39.8881 84.815 39.154C87.1047 37.6934 89.9719 38.0909 92.1661 40.0671C92.5088 40.3916 92.8515 40.7162 93.1943 41.0407C93.5299 40.5809 93.8566 40.1314 94.1832 39.6819C95.5822 37.8194 96.5658 37.207 98.7123 37.0065C100.128 36.8771 100.531 36.9648 101.41 37.3386C103.528 38.2446 104.843 39.9827 105.484 42.6018C105.579 42.9731 105.674 43.4992 105.787 44.1404C106.403 47.9143 107.183 55.7656 107.257 59.5489C107.311 61.948 107.287 62.9865 107.171 63.6729C107.107 63.9972 107.028 64.2451 106.922 64.5239C106.678 65.0547 106.323 65.6419 106.05 65.8938C105.353 66.4566 103.619 66.8702 100.908 67.1689C98.877 67.3613 98.4211 67.3548 97.6039 67.0348C96.313 66.5934 95.8333 66.2495 95.371 65.3327C94.855 64.4778 94.6463 62.2156 94.83 60.0225C95.032 57.2661 95.0577 52.0224 94.8199 51.1284C94.6339 50.0079 94.2595 49.6469 93.471 49.7318C93.0771 49.7791 92.8064 49.9243 92.6037 50.3456C92.3032 50.8901 92.3394 51.4011 92.7101 55.8125C93.1492 61.1881 93.1152 61.5296 91.9813 62.3463C91.1099 62.9022 88.6225 63.2142 87.857 62.8033C86.6818 62.218 86.5306 61.7249 86.4836 57.0967C86.4056 52.713 86.2058 51.5353 85.6076 51.1611C84.7761 50.6386 84.1891 51.2422 84.0113 52.6985C83.9523 53.5069 84.0841 55.3676 84.5419 59.366C85.3133 66.2876 85.2517 66.9218 83.8606 68.2122C82.6336 69.3552 79.4462 70.1818 76.4941 70.2263ZM113.925 66.1399C112.61 66.0393 112.021 65.7904 111.177 65.0944C109.856 64.0931 109.864 64.2088 109.092 52.491C108.407 42.0072 108.375 39.2286 108.81 38.1222C109.593 36.313 112.926 35.2145 115.649 35.9129C116.982 36.2545 118.375 37.4638 118.914 38.6368C119.051 38.9372 119.189 39.2375 119.326 39.5281C119.49 39.2452 119.663 38.952 119.827 38.669C120.434 37.5215 121.125 36.8814 122.333 36.292C124.642 35.111 127.533 35.8363 129.744 38.0535C130.089 38.407 130.434 38.7701 130.789 39.1325C131.119 38.7216 131.448 38.3106 131.778 37.8997C133.199 36.2196 134.191 35.723 136.355 35.7731C137.772 35.8084 138.188 35.9339 139.075 36.4137C141.201 37.5614 142.525 39.4345 143.17 42.1115C143.808 44.6825 144.858 54.7141 144.947 59.1164C145.021 62.6187 144.944 63.1765 144.606 64.0143C144.36 64.5065 144.002 65.0551 143.736 65.2678C143.024 65.7542 141.275 65.9557 138.542 65.9459C136.494 65.8972 136.034 65.8329 135.211 65.4262C133.919 64.8394 133.435 64.4377 132.97 63.4727C132.45 62.5696 132.231 60.2984 132.418 58.1535C132.623 55.4357 132.652 50.2401 132.423 49.3262C132.226 48.1968 131.859 47.7965 131.063 47.785C130.656 47.7848 130.384 47.901 130.189 48.2927C129.876 48.7994 129.912 49.3103 130.283 53.7314C130.722 59.107 130.688 59.4485 129.544 60.1206C128.665 60.5705 126.167 60.5925 125.386 60.0956C124.201 59.3753 124.049 58.8725 124.005 54.2829C123.928 49.9184 123.728 48.7312 123.125 48.2894C122.287 47.6802 121.704 48.206 121.514 49.6244C121.464 50.4225 121.597 52.2928 122.045 56.3015C122.829 63.261 122.757 63.8863 121.354 65.0031C120.116 65.9919 116.902 66.4425 113.925 66.1399ZM170.24 68.3313C168.152 67.8591 167.137 67.0687 166.511 65.4852C166.241 64.952 166.043 64.4816 166.039 64.4238C165.98 64.4182 165.6 64.6583 165.052 64.9879C163.748 65.8651 161.694 66.5532 160.056 66.6887C155.803 66.9707 151.185 64.4202 148.917 60.4532C147.476 57.8907 146.949 56.058 146.857 53.119C146.815 50.0698 147.187 48.0668 148.157 45.7502C149.135 43.5589 150.175 42.0996 151.777 40.6393C157.127 35.8806 162.875 38.2348 164.23 38.8945C165.817 39.6832 166.343 39.8591 166.323 39.5795C166.299 39.2421 167.262 38.3405 167.863 38.0751C168.311 37.9658 168.996 37.927 170.199 38.084C173.358 38.49 174.9 39.3303 175.989 41.1715C176.635 42.2207 176.651 42.4424 177.06 45.7562C177.528 50.0252 178.259 62.6761 178.177 64.7942C177.97 68.2971 176.938 68.9128 172.361 68.5976C171.505 68.542 170.586 68.4327 170.24 68.3313ZM163.707 55.5779C165.806 53.8886 165.136 48.5391 162.707 47.219C161.758 46.6662 161.091 46.8297 160.242 47.7038C159.506 48.531 159.291 49.4667 159.428 51.3949C159.532 52.8604 159.605 53.204 160.194 54.2765C160.65 55.1066 161.029 55.5351 161.441 55.7385C162.262 56.1066 163.112 56.0754 163.707 55.5779Z" fill="white"/>
<path d="M39.159 78.6758C37.1118 78.6368 36.6188 77.2861 36.6798 71.7201C36.8451 62.0191 39.6079 49.5953 42.9678 43.2723C45.0269 39.3766 47.3396 37.5559 51.4835 36.5549C54.9518 35.7278 57.2543 36.0879 59.6435 37.808C60.8467 38.6529 61.2782 39.1359 62.6866 41.3712C65.4318 45.5175 67.0992 49.9049 68.6831 56.9434C69.4387 60.3587 70.1225 65.2227 70.0582 66.7775C70.0364 68.7945 69.8467 69.399 68.9606 70.4307C67.9049 71.6682 66.7444 72.109 63.0971 72.8713C59.856 73.6241 58.7116 73.6084 57.4009 72.7517C56.3829 72.0583 56.2125 71.2953 56.1809 67.5671C56.143 63.8878 55.8468 60.3916 55.4886 59.4384C54.7996 57.6462 53.1258 57.4063 51.9893 59.0081C51.0121 60.3951 50.9007 61.2847 51.0294 66.3819C51.2043 71.1754 51.0925 72.8789 50.437 74.0203C49.9807 74.8278 48.6372 75.9694 47.4835 76.5066C45.942 77.1778 40.2456 78.6957 39.159 78.6758ZM54.0206 50.7541C56.0787 48.4863 54.7724 43.7245 52.3709 44.292C50.1891 44.8148 49.5041 50.4637 51.5129 51.4647C52.2771 51.8563 53.3398 51.5388 54.0206 50.7541ZM76.4941 70.2263C75.1892 70.2703 74.6046 70.0889 73.7676 69.4893C72.457 68.6326 72.4652 68.7483 71.6923 57.0208C70.9979 46.5377 70.9733 43.7296 71.4044 42.5654C72.1795 40.6501 75.4843 39.1563 78.1862 39.5462C79.5075 39.7336 80.8903 40.7886 81.4254 41.9134C81.5623 42.2041 81.6985 42.4851 81.825 42.7668C81.9974 42.4639 82.169 42.1514 82.331 41.8395C82.9322 40.6148 83.617 39.8881 84.815 39.154C87.1047 37.6934 89.9719 38.0909 92.1661 40.0671C92.5088 40.3916 92.8515 40.7162 93.1943 41.0407C93.5299 40.5809 93.8566 40.1314 94.1832 39.6819C95.5822 37.8194 96.5658 37.207 98.7123 37.0065C100.128 36.8771 100.531 36.9648 101.41 37.3386C103.528 38.2446 104.843 39.9827 105.484 42.6018C105.579 42.9731 105.674 43.4992 105.787 44.1404C106.403 47.9143 107.183 55.7656 107.257 59.5489C107.311 61.948 107.287 62.9865 107.171 63.6729C107.107 63.9972 107.028 64.2451 106.922 64.5239C106.678 65.0547 106.323 65.6419 106.05 65.8938C105.353 66.4566 103.619 66.8702 100.908 67.1689C98.877 67.3613 98.4211 67.3548 97.6039 67.0348C96.313 66.5934 95.8333 66.2495 95.371 65.3327C94.855 64.4778 94.6463 62.2156 94.83 60.0225C95.032 57.2661 95.0577 52.0224 94.8199 51.1284C94.6339 50.0079 94.2595 49.6469 93.471 49.7318C93.0771 49.7791 92.8064 49.9243 92.6037 50.3456C92.3032 50.8901 92.3394 51.4011 92.7101 55.8125C93.1492 61.1881 93.1152 61.5296 91.9813 62.3463C91.1099 62.9022 88.6225 63.2142 87.857 62.8033C86.6818 62.218 86.5306 61.7249 86.4836 57.0967C86.4056 52.713 86.2058 51.5353 85.6076 51.1611C84.7761 50.6386 84.1891 51.2422 84.0113 52.6985C83.9523 53.5069 84.0841 55.3676 84.5419 59.366C85.3133 66.2876 85.2517 66.9218 83.8606 68.2122C82.6336 69.3552 79.4462 70.1818 76.4941 70.2263ZM113.925 66.1399C112.61 66.0393 112.021 65.7904 111.177 65.0944C109.856 64.0931 109.864 64.2088 109.092 52.491C108.407 42.0072 108.375 39.2286 108.81 38.1222C109.593 36.313 112.926 35.2145 115.649 35.9129C116.982 36.2545 118.375 37.4638 118.914 38.6368C119.051 38.9372 119.189 39.2375 119.326 39.5281C119.49 39.2452 119.663 38.952 119.827 38.669C120.434 37.5215 121.125 36.8814 122.333 36.292C124.642 35.111 127.533 35.8363 129.744 38.0535C130.089 38.407 130.434 38.7701 130.789 39.1325C131.119 38.7216 131.448 38.3106 131.778 37.8997C133.199 36.2196 134.191 35.723 136.355 35.7731C137.772 35.8084 138.188 35.9339 139.075 36.4137C141.201 37.5614 142.525 39.4345 143.17 42.1115C143.808 44.6825 144.858 54.7141 144.947 59.1164C145.021 62.6187 144.944 63.1765 144.606 64.0143C144.36 64.5065 144.002 65.0551 143.736 65.2678C143.024 65.7542 141.275 65.9557 138.542 65.9459C136.494 65.8972 136.034 65.8329 135.211 65.4262C133.919 64.8394 133.435 64.4377 132.97 63.4727C132.45 62.5696 132.231 60.2984 132.418 58.1535C132.623 55.4357 132.652 50.2401 132.423 49.3262C132.226 48.1968 131.859 47.7965 131.063 47.785C130.656 47.7848 130.384 47.901 130.189 48.2927C129.876 48.7994 129.912 49.3103 130.283 53.7314C130.722 59.107 130.688 59.4485 129.544 60.1206C128.665 60.5705 126.167 60.5925 125.386 60.0956C124.201 59.3753 124.049 58.8725 124.005 54.2829C123.928 49.9184 123.728 48.7312 123.125 48.2894C122.287 47.6802 121.704 48.206 121.514 49.6244C121.464 50.4225 121.597 52.2928 122.045 56.3015C122.829 63.261 122.757 63.8863 121.354 65.0031C120.116 65.9919 116.902 66.4425 113.925 66.1399ZM170.24 68.3313C168.152 67.8591 167.137 67.0687 166.511 65.4852C166.241 64.952 166.043 64.4816 166.039 64.4238C165.98 64.4182 165.6 64.6583 165.052 64.9879C163.748 65.8651 161.694 66.5532 160.056 66.6887C155.803 66.9707 151.185 64.4202 148.917 60.4532C147.476 57.8907 146.949 56.058 146.857 53.119C146.815 50.0698 147.187 48.0668 148.157 45.7502C149.135 43.5589 150.175 42.0996 151.777 40.6393C157.127 35.8806 162.875 38.2348 164.23 38.8945C165.817 39.6832 166.343 39.8591 166.323 39.5795C166.299 39.2421 167.262 38.3405 167.863 38.0751C168.311 37.9658 168.996 37.927 170.199 38.084C173.358 38.49 174.9 39.3303 175.989 41.1715C176.635 42.2207 176.651 42.4424 177.06 45.7562C177.528 50.0252 178.259 62.6761 178.177 64.7942C177.97 68.2971 176.938 68.9128 172.361 68.5976C171.505 68.542 170.586 68.4327 170.24 68.3313ZM163.707 55.5779C165.806 53.8886 165.136 48.5391 162.707 47.219C161.758 46.6662 161.091 46.8297 160.242 47.7038C159.506 48.531 159.291 49.4667 159.428 51.3949C159.532 52.8604 159.605 53.204 160.194 54.2765C160.65 55.1066 161.029 55.5351 161.441 55.7385C162.262 56.1066 163.112 56.0754 163.707 55.5779Z" stroke="white" stroke-width="24" stroke-linejoin="round" mask="url(#path-11-outside-7_2016_1184)"/>
<rect x="33.2539" y="91.7983" width="32.4053" height="28.37" fill="#10566B"/>
<rect x="146.354" y="85.228" width="32.4053" height="28.37" fill="#10566B"/>
<rect x="154.315" y="41.0796" width="16.4834" height="21.1004" fill="#296D7C"/>
<path d="M256.84 65.8946C254.311 87.2985 234.549 89.7099 210.853 86.9101C187.157 84.1103 168.538 77.1311 171.063 55.7595C173.592 34.3556 196.348 6.60165 220.044 9.40149C243.74 12.2013 259.369 44.4907 256.84 65.8946Z" fill="url(#paint2_linear_2016_1184)"/>
<path opacity="0.1" d="M219.586 13.2755C224.493 13.8553 229.257 15.9239 233.717 19.4624C237.88 22.7367 241.757 27.3193 244.922 32.6689C251.061 43.0508 254.162 55.5942 252.998 65.4407C251.995 73.9312 248.042 79.1271 240.524 81.8068C233.895 84.166 224.353 84.5771 211.375 83.0437C198.398 81.5103 189.215 78.8868 183.318 75.0476C176.631 70.6895 173.998 64.7154 175.001 56.2248C176.165 46.3784 182.104 34.903 190.493 26.2377C194.817 21.7731 199.652 18.2526 204.468 16.0065C209.532 13.5933 214.647 12.6919 219.586 13.2755ZM220.044 9.40149C196.348 6.60165 173.592 34.3556 171.063 55.7595C168.534 77.1634 187.189 84.1141 210.885 86.9139C234.581 89.7138 254.343 87.3023 256.872 65.8984C259.369 44.4907 243.708 12.1975 220.044 9.40149Z" fill="black"/>
<path d="M220.044 9.4012C243.708 12.1972 259.369 44.4904 256.84 65.8943C254.311 87.2982 234.549 89.7097 210.853 86.9098C187.157 84.11 168.501 77.1593 171.03 55.7554C173.592 34.3553 196.348 6.60137 220.044 9.4012ZM220.502 5.52719C214.142 4.77574 207.625 5.90435 201.117 8.89982C195.369 11.5595 189.888 15.5601 184.819 20.7878C180.158 25.6055 176.079 31.3103 172.982 37.2949C169.874 43.3762 167.864 49.5873 167.192 55.2692C165.842 66.6975 169.805 75.5457 179.015 81.544C186.037 86.1054 196.033 89.0541 210.431 90.7554C224.83 92.4566 235.233 91.951 243.13 89.1195C253.451 85.429 259.399 77.7519 260.75 66.3236C261.425 60.6094 260.917 54.1008 259.308 47.4948C257.724 40.9572 255.055 34.4551 251.645 28.6838C247.966 22.4224 243.536 17.2507 238.566 13.3246C232.935 8.89491 226.861 6.27865 220.502 5.52719Z" fill="url(#paint3_linear_2016_1184)"/>
<path opacity="0.1" d="M214.002 60.5384C198.312 58.6846 185.196 49.7368 177.438 37.2651C174.032 43.3767 171.765 49.8193 171.067 55.7272C168.538 77.1311 187.193 84.0818 210.889 86.8817C234.585 89.6815 254.315 87.2662 256.84 65.8946C257.542 59.9544 256.835 53.1932 254.947 46.456C244.532 56.7479 229.692 62.3922 214.002 60.5384Z" fill="black"/>
<path d="M232.33 46.4347L213.162 28.5884C210.419 26.0384 205.97 27.6732 205.531 31.3858L201.9 62.1196C201.461 65.8322 205.439 68.4626 208.668 66.6183L231.468 53.7308C234.167 52.2166 234.602 48.5363 232.33 46.4347Z" fill="#F2F2F2"/>
<rect x="41.875" y="36.3276" width="19.2644" height="18.7821" fill="#296D7C"/>
<mask id="path-21-outside-8_2016_1184" maskUnits="userSpaceOnUse" x="3" y="64.834" width="268" height="110" fill="black">
<rect fill="white" x="3" y="64.834" width="268" height="110"/>
<path d="M18.9775 157.361C17.4723 154.836 17.256 152.938 17.0397 139.757C16.9337 132.681 17.0397 122.343 17.3619 116.909C18.1167 98.2857 19.622 91.7747 23.7051 88.9276C25.1044 88.0447 26.0711 87.6607 29.9424 86.928C34.0255 86.1687 34.8863 86.1555 36.7137 86.5218C38.7575 86.9633 41.1191 88.5568 41.1191 89.5279C41.1191 89.7398 41.9799 89.294 43.1629 88.4818C47.246 85.6523 52.084 84.1514 57.1382 84.1911C64.8763 84.2353 69.498 87.0118 72.8307 93.4566C76.596 100.519 76.702 111.692 73.2633 118.785C70.0365 125.226 65.3089 129.017 57.999 130.849C54.8782 131.754 51.1173 131.794 47.0341 131.163C45.7408 130.907 44.2399 130.792 43.8074 130.854C43.5204 130.893 43.2335 130.933 42.9466 130.973C42.9819 134.372 43.0216 137.771 43.0569 141.17C43.1629 151.044 43.1629 151.366 42.3021 152.889C41.2295 155.083 38.9694 157.233 36.6034 158.345C30.9091 160.151 22.4162 162.543 18.9775 157.361ZM51.8721 113.007C53.6996 111.268 54.5559 109.123 54.5559 106.434C54.5559 102.351 52.5166 99.4819 49.718 99.8483C48.2171 100.043 46.3897 101.579 45.5289 103.525C43.9133 106.977 44.6681 111.921 47.1401 113.841C48.3231 114.755 50.3669 114.38 51.8721 113.007ZM92.39 152.598C85.7246 152.082 82.82 150.731 81.2089 144.193C80.4584 141.033 79.814 126.899 80.1362 120.529C80.2422 117.832 80.3481 112.769 80.4584 109.105C80.6703 101.565 81.2089 93.3462 81.8533 88.8879C82.6082 82.4917 84.5416 80.5847 91.4233 79.8873C98.7332 79.1766 102.922 80.4921 104.75 83.838C106.365 86.8794 106.471 93.9686 104.75 106.734C103.571 116.684 103.999 123.433 105.933 124.307C107.226 124.894 110.449 124.528 114.964 123.195C120.663 121.615 122.596 121.588 124.102 122.846C125.713 124.21 126.357 126.678 126.574 131.834C127.112 141.505 124.314 147.001 117.652 149.34C112.815 150.991 108.405 151.795 101.417 152.267C97.6562 152.572 93.573 152.73 92.39 152.598ZM135.027 150.779C131.156 149.614 130.405 146.833 131.266 136.504C132.078 127.424 134.237 117.404 137.106 108.421C139.913 99.6276 143.396 91.8321 146.958 86.8882C151.364 80.726 155.985 78.5498 163.944 78.8632C170.605 79.1369 174.909 80.9953 179.208 85.458C181.358 87.6342 182.109 88.7598 184.475 93.6552C189.096 102.801 191.679 111.833 193.718 125.764C194.685 132.513 195.334 141.92 195.007 144.794C194.685 148.533 194.256 149.565 192.429 151.027C190.279 152.792 188.019 153.017 181.036 152.545C174.799 152.249 172.649 151.618 170.283 149.345C168.455 147.535 168.244 146.021 168.672 139.051C169.1 132.196 168.994 125.521 168.455 123.561C167.383 119.858 164.266 118.534 161.9 120.922C159.857 122.996 159.534 124.603 159.106 134.155C158.784 143.174 158.351 146.277 156.957 148.06C155.985 149.323 153.302 150.753 151.041 151.137C148.618 151.503 141.03 151.424 137.106 151.088C136.157 151.004 135.424 150.903 135.027 150.779ZM166.844 106.611C171.038 103.477 169.21 93.92 164.589 93.7214C160.395 93.5537 158.351 103.706 162.006 106.629C163.406 107.754 165.445 107.732 166.844 106.611ZM219.528 156.187C216.522 155.282 214.584 154.196 213.079 152.413C210.713 149.676 210.717 149.464 210.39 134.16C210.284 121.893 210.178 120.057 209.534 118.803C208.563 116.764 205.341 113.29 200.074 109.03C194.698 104.651 190.827 100.696 189.644 98.3431C188.249 95.9771 188.355 93.1917 189.86 90.7286C191.365 88.261 196.309 84.1603 199.214 83.039C204.374 80.9423 208.241 81.6795 211.684 85.3918C214.156 87.9256 216.089 91.8101 218.455 98.6521C220.389 104.589 220.711 105.273 221.677 105.719C223.827 106.637 225.121 105.194 226.948 99.4201C227.482 97.7736 228.776 94.9397 229.848 93.152C232.753 87.9653 236.191 85.6699 240.169 86.2835C245.329 87.0604 253.822 92.918 256.294 97.3543C257.477 99.3937 257.477 101.866 256.51 103.733C255.327 105.891 251.133 109.643 244.362 114.57C239.524 118.203 237.697 119.77 236.946 121.05C236.62 121.61 236.297 122.171 235.975 122.736C236.121 126.519 236.262 130.302 236.408 134.085C237.052 149.879 236.73 153.048 234.042 155.344C231.676 157.361 225.121 157.732 219.528 156.187Z"/>
</mask>
<path d="M18.9775 157.361C17.4723 154.836 17.256 152.938 17.0397 139.757C16.9337 132.681 17.0397 122.343 17.3619 116.909C18.1167 98.2857 19.622 91.7747 23.7051 88.9276C25.1044 88.0447 26.0711 87.6607 29.9424 86.928C34.0255 86.1687 34.8863 86.1555 36.7137 86.5218C38.7575 86.9633 41.1191 88.5568 41.1191 89.5279C41.1191 89.7398 41.9799 89.294 43.1629 88.4818C47.246 85.6523 52.084 84.1514 57.1382 84.1911C64.8763 84.2353 69.498 87.0118 72.8307 93.4566C76.596 100.519 76.702 111.692 73.2633 118.785C70.0365 125.226 65.3089 129.017 57.999 130.849C54.8782 131.754 51.1173 131.794 47.0341 131.163C45.7408 130.907 44.2399 130.792 43.8074 130.854C43.5204 130.893 43.2335 130.933 42.9466 130.973C42.9819 134.372 43.0216 137.771 43.0569 141.17C43.1629 151.044 43.1629 151.366 42.3021 152.889C41.2295 155.083 38.9694 157.233 36.6034 158.345C30.9091 160.151 22.4162 162.543 18.9775 157.361ZM51.8721 113.007C53.6996 111.268 54.5559 109.123 54.5559 106.434C54.5559 102.351 52.5166 99.4819 49.718 99.8483C48.2171 100.043 46.3897 101.579 45.5289 103.525C43.9133 106.977 44.6681 111.921 47.1401 113.841C48.3231 114.755 50.3669 114.38 51.8721 113.007ZM92.39 152.598C85.7246 152.082 82.82 150.731 81.2089 144.193C80.4584 141.033 79.814 126.899 80.1362 120.529C80.2422 117.832 80.3481 112.769 80.4584 109.105C80.6703 101.565 81.2089 93.3462 81.8533 88.8879C82.6082 82.4917 84.5416 80.5847 91.4233 79.8873C98.7332 79.1766 102.922 80.4921 104.75 83.838C106.365 86.8794 106.471 93.9686 104.75 106.734C103.571 116.684 103.999 123.433 105.933 124.307C107.226 124.894 110.449 124.528 114.964 123.195C120.663 121.615 122.596 121.588 124.102 122.846C125.713 124.21 126.357 126.678 126.574 131.834C127.112 141.505 124.314 147.001 117.652 149.34C112.815 150.991 108.405 151.795 101.417 152.267C97.6562 152.572 93.573 152.73 92.39 152.598ZM135.027 150.779C131.156 149.614 130.405 146.833 131.266 136.504C132.078 127.424 134.237 117.404 137.106 108.421C139.913 99.6276 143.396 91.8321 146.958 86.8882C151.364 80.726 155.985 78.5498 163.944 78.8632C170.605 79.1369 174.909 80.9953 179.208 85.458C181.358 87.6342 182.109 88.7598 184.475 93.6552C189.096 102.801 191.679 111.833 193.718 125.764C194.685 132.513 195.334 141.92 195.007 144.794C194.685 148.533 194.256 149.565 192.429 151.027C190.279 152.792 188.019 153.017 181.036 152.545C174.799 152.249 172.649 151.618 170.283 149.345C168.455 147.535 168.244 146.021 168.672 139.051C169.1 132.196 168.994 125.521 168.455 123.561C167.383 119.858 164.266 118.534 161.9 120.922C159.857 122.996 159.534 124.603 159.106 134.155C158.784 143.174 158.351 146.277 156.957 148.06C155.985 149.323 153.302 150.753 151.041 151.137C148.618 151.503 141.03 151.424 137.106 151.088C136.157 151.004 135.424 150.903 135.027 150.779ZM166.844 106.611C171.038 103.477 169.21 93.92 164.589 93.7214C160.395 93.5537 158.351 103.706 162.006 106.629C163.406 107.754 165.445 107.732 166.844 106.611ZM219.528 156.187C216.522 155.282 214.584 154.196 213.079 152.413C210.713 149.676 210.717 149.464 210.39 134.16C210.284 121.893 210.178 120.057 209.534 118.803C208.563 116.764 205.341 113.29 200.074 109.03C194.698 104.651 190.827 100.696 189.644 98.3431C188.249 95.9771 188.355 93.1917 189.86 90.7286C191.365 88.261 196.309 84.1603 199.214 83.039C204.374 80.9423 208.241 81.6795 211.684 85.3918C214.156 87.9256 216.089 91.8101 218.455 98.6521C220.389 104.589 220.711 105.273 221.677 105.719C223.827 106.637 225.121 105.194 226.948 99.4201C227.482 97.7736 228.776 94.9397 229.848 93.152C232.753 87.9653 236.191 85.6699 240.169 86.2835C245.329 87.0604 253.822 92.918 256.294 97.3543C257.477 99.3937 257.477 101.866 256.51 103.733C255.327 105.891 251.133 109.643 244.362 114.57C239.524 118.203 237.697 119.77 236.946 121.05C236.62 121.61 236.297 122.171 235.975 122.736C236.121 126.519 236.262 130.302 236.408 134.085C237.052 149.879 236.73 153.048 234.042 155.344C231.676 157.361 225.121 157.732 219.528 156.187Z" fill="white"/>
<path d="M18.9775 157.361C17.4723 154.836 17.256 152.938 17.0397 139.757C16.9337 132.681 17.0397 122.343 17.3619 116.909C18.1167 98.2857 19.622 91.7747 23.7051 88.9276C25.1044 88.0447 26.0711 87.6607 29.9424 86.928C34.0255 86.1687 34.8863 86.1555 36.7137 86.5218C38.7575 86.9633 41.1191 88.5568 41.1191 89.5279C41.1191 89.7398 41.9799 89.294 43.1629 88.4818C47.246 85.6523 52.084 84.1514 57.1382 84.1911C64.8763 84.2353 69.498 87.0118 72.8307 93.4566C76.596 100.519 76.702 111.692 73.2633 118.785C70.0365 125.226 65.3089 129.017 57.999 130.849C54.8782 131.754 51.1173 131.794 47.0341 131.163C45.7408 130.907 44.2399 130.792 43.8074 130.854C43.5204 130.893 43.2335 130.933 42.9466 130.973C42.9819 134.372 43.0216 137.771 43.0569 141.17C43.1629 151.044 43.1629 151.366 42.3021 152.889C41.2295 155.083 38.9694 157.233 36.6034 158.345C30.9091 160.151 22.4162 162.543 18.9775 157.361ZM51.8721 113.007C53.6996 111.268 54.5559 109.123 54.5559 106.434C54.5559 102.351 52.5166 99.4819 49.718 99.8483C48.2171 100.043 46.3897 101.579 45.5289 103.525C43.9133 106.977 44.6681 111.921 47.1401 113.841C48.3231 114.755 50.3669 114.38 51.8721 113.007ZM92.39 152.598C85.7246 152.082 82.82 150.731 81.2089 144.193C80.4584 141.033 79.814 126.899 80.1362 120.529C80.2422 117.832 80.3481 112.769 80.4584 109.105C80.6703 101.565 81.2089 93.3462 81.8533 88.8879C82.6082 82.4917 84.5416 80.5847 91.4233 79.8873C98.7332 79.1766 102.922 80.4921 104.75 83.838C106.365 86.8794 106.471 93.9686 104.75 106.734C103.571 116.684 103.999 123.433 105.933 124.307C107.226 124.894 110.449 124.528 114.964 123.195C120.663 121.615 122.596 121.588 124.102 122.846C125.713 124.21 126.357 126.678 126.574 131.834C127.112 141.505 124.314 147.001 117.652 149.34C112.815 150.991 108.405 151.795 101.417 152.267C97.6562 152.572 93.573 152.73 92.39 152.598ZM135.027 150.779C131.156 149.614 130.405 146.833 131.266 136.504C132.078 127.424 134.237 117.404 137.106 108.421C139.913 99.6276 143.396 91.8321 146.958 86.8882C151.364 80.726 155.985 78.5498 163.944 78.8632C170.605 79.1369 174.909 80.9953 179.208 85.458C181.358 87.6342 182.109 88.7598 184.475 93.6552C189.096 102.801 191.679 111.833 193.718 125.764C194.685 132.513 195.334 141.92 195.007 144.794C194.685 148.533 194.256 149.565 192.429 151.027C190.279 152.792 188.019 153.017 181.036 152.545C174.799 152.249 172.649 151.618 170.283 149.345C168.455 147.535 168.244 146.021 168.672 139.051C169.1 132.196 168.994 125.521 168.455 123.561C167.383 119.858 164.266 118.534 161.9 120.922C159.857 122.996 159.534 124.603 159.106 134.155C158.784 143.174 158.351 146.277 156.957 148.06C155.985 149.323 153.302 150.753 151.041 151.137C148.618 151.503 141.03 151.424 137.106 151.088C136.157 151.004 135.424 150.903 135.027 150.779ZM166.844 106.611C171.038 103.477 169.21 93.92 164.589 93.7214C160.395 93.5537 158.351 103.706 162.006 106.629C163.406 107.754 165.445 107.732 166.844 106.611ZM219.528 156.187C216.522 155.282 214.584 154.196 213.079 152.413C210.713 149.676 210.717 149.464 210.39 134.16C210.284 121.893 210.178 120.057 209.534 118.803C208.563 116.764 205.341 113.29 200.074 109.03C194.698 104.651 190.827 100.696 189.644 98.3431C188.249 95.9771 188.355 93.1917 189.86 90.7286C191.365 88.261 196.309 84.1603 199.214 83.039C204.374 80.9423 208.241 81.6795 211.684 85.3918C214.156 87.9256 216.089 91.8101 218.455 98.6521C220.389 104.589 220.711 105.273 221.677 105.719C223.827 106.637 225.121 105.194 226.948 99.4201C227.482 97.7736 228.776 94.9397 229.848 93.152C232.753 87.9653 236.191 85.6699 240.169 86.2835C245.329 87.0604 253.822 92.918 256.294 97.3543C257.477 99.3937 257.477 101.866 256.51 103.733C255.327 105.891 251.133 109.643 244.362 114.57C239.524 118.203 237.697 119.77 236.946 121.05C236.62 121.61 236.297 122.171 235.975 122.736C236.121 126.519 236.262 130.302 236.408 134.085C237.052 149.879 236.73 153.048 234.042 155.344C231.676 157.361 225.121 157.732 219.528 156.187Z" stroke="url(#paint4_linear_2016_1184)" stroke-width="27.368" stroke-linejoin="round" mask="url(#path-21-outside-8_2016_1184)"/>
<mask id="path-22-outside-9_2016_1184" maskUnits="userSpaceOnUse" x="25.5444" y="18.9801" width="161.704" height="69.0228" fill="black">
<rect fill="white" x="25.5444" y="18.9801" width="161.704" height="69.0228"/>
<path d="M39.159 78.6758C37.1118 78.6368 36.6188 77.2861 36.6798 71.7201C36.8451 62.0191 39.6079 49.5953 42.9678 43.2723C45.0269 39.3766 47.3396 37.5559 51.4835 36.5549C54.9518 35.7278 57.2543 36.0879 59.6435 37.808C60.8467 38.6529 61.2782 39.1359 62.6866 41.3712C65.4318 45.5175 67.0992 49.9049 68.6831 56.9434C69.4387 60.3587 70.1225 65.2227 70.0582 66.7775C70.0364 68.7945 69.8467 69.399 68.9606 70.4307C67.9049 71.6682 66.7444 72.109 63.0971 72.8713C59.856 73.6241 58.7116 73.6084 57.4009 72.7517C56.3829 72.0583 56.2125 71.2953 56.1809 67.5671C56.143 63.8878 55.8468 60.3916 55.4886 59.4384C54.7996 57.6462 53.1258 57.4063 51.9893 59.0081C51.0121 60.3951 50.9007 61.2847 51.0294 66.3819C51.2043 71.1754 51.0925 72.8789 50.437 74.0203C49.9807 74.8278 48.6372 75.9694 47.4835 76.5066C45.942 77.1778 40.2456 78.6957 39.159 78.6758ZM54.0206 50.7541C56.0787 48.4863 54.7724 43.7245 52.3709 44.292C50.1891 44.8148 49.5041 50.4637 51.5129 51.4647C52.2771 51.8563 53.3398 51.5388 54.0206 50.7541ZM76.4941 70.2263C75.1892 70.2703 74.6046 70.0889 73.7676 69.4893C72.457 68.6326 72.4652 68.7483 71.6923 57.0208C70.9979 46.5377 70.9733 43.7296 71.4044 42.5654C72.1795 40.6501 75.4843 39.1563 78.1862 39.5462C79.5075 39.7336 80.8903 40.7886 81.4254 41.9134C81.5623 42.2041 81.6985 42.4851 81.825 42.7668C81.9974 42.4639 82.169 42.1514 82.331 41.8395C82.9322 40.6148 83.617 39.8881 84.815 39.154C87.1047 37.6934 89.9719 38.0909 92.1661 40.0671C92.5088 40.3916 92.8515 40.7162 93.1943 41.0407C93.5299 40.5809 93.8566 40.1314 94.1832 39.6819C95.5822 37.8194 96.5658 37.207 98.7123 37.0065C100.128 36.8771 100.531 36.9648 101.41 37.3386C103.528 38.2446 104.843 39.9827 105.484 42.6018C105.579 42.9731 105.674 43.4992 105.787 44.1404C106.403 47.9143 107.183 55.7656 107.257 59.5489C107.311 61.948 107.287 62.9865 107.171 63.6729C107.107 63.9972 107.028 64.2451 106.922 64.5239C106.678 65.0547 106.323 65.6419 106.05 65.8938C105.353 66.4566 103.619 66.8702 100.908 67.1689C98.877 67.3613 98.4211 67.3548 97.6039 67.0348C96.313 66.5934 95.8333 66.2495 95.371 65.3327C94.855 64.4778 94.6463 62.2156 94.83 60.0225C95.032 57.2661 95.0577 52.0224 94.8199 51.1284C94.6339 50.0079 94.2595 49.6469 93.471 49.7318C93.0771 49.7791 92.8064 49.9243 92.6037 50.3456C92.3032 50.8901 92.3394 51.4011 92.7101 55.8125C93.1492 61.1881 93.1152 61.5296 91.9813 62.3463C91.1099 62.9022 88.6225 63.2142 87.857 62.8033C86.6818 62.218 86.5306 61.7249 86.4836 57.0967C86.4056 52.713 86.2058 51.5353 85.6076 51.1611C84.7761 50.6386 84.1891 51.2422 84.0113 52.6985C83.9523 53.5069 84.0841 55.3676 84.5419 59.366C85.3133 66.2876 85.2517 66.9218 83.8606 68.2122C82.6336 69.3552 79.4462 70.1818 76.4941 70.2263ZM113.925 66.1399C112.61 66.0393 112.021 65.7904 111.177 65.0944C109.856 64.0931 109.864 64.2088 109.092 52.491C108.407 42.0072 108.375 39.2286 108.81 38.1222C109.593 36.313 112.926 35.2145 115.649 35.9129C116.982 36.2545 118.375 37.4638 118.914 38.6368C119.051 38.9372 119.189 39.2375 119.326 39.5281C119.49 39.2452 119.663 38.952 119.827 38.669C120.434 37.5215 121.125 36.8814 122.333 36.292C124.642 35.111 127.533 35.8363 129.744 38.0535C130.089 38.407 130.434 38.7701 130.789 39.1325C131.119 38.7216 131.448 38.3106 131.778 37.8997C133.199 36.2196 134.191 35.723 136.355 35.7731C137.772 35.8084 138.188 35.9339 139.075 36.4137C141.201 37.5614 142.525 39.4345 143.17 42.1115C143.808 44.6825 144.858 54.7141 144.947 59.1164C145.021 62.6187 144.944 63.1765 144.606 64.0143C144.36 64.5065 144.002 65.0551 143.736 65.2678C143.024 65.7542 141.275 65.9557 138.542 65.9459C136.494 65.8972 136.034 65.8329 135.211 65.4262C133.919 64.8394 133.435 64.4377 132.97 63.4727C132.45 62.5696 132.231 60.2984 132.418 58.1535C132.623 55.4357 132.652 50.2401 132.423 49.3262C132.226 48.1968 131.859 47.7965 131.063 47.785C130.656 47.7848 130.384 47.901 130.189 48.2927C129.876 48.7994 129.912 49.3103 130.283 53.7314C130.722 59.107 130.688 59.4485 129.544 60.1206C128.665 60.5705 126.167 60.5925 125.386 60.0956C124.201 59.3753 124.049 58.8725 124.005 54.2829C123.928 49.9184 123.728 48.7312 123.125 48.2894C122.287 47.6802 121.704 48.206 121.514 49.6244C121.464 50.4225 121.597 52.2928 122.045 56.3015C122.829 63.261 122.757 63.8863 121.354 65.0031C120.116 65.9919 116.902 66.4425 113.925 66.1399ZM170.24 68.3313C168.152 67.8591 167.137 67.0687 166.511 65.4852C166.241 64.952 166.043 64.4816 166.039 64.4238C165.98 64.4182 165.6 64.6583 165.052 64.9879C163.748 65.8651 161.694 66.5532 160.056 66.6887C155.803 66.9707 151.185 64.4202 148.917 60.4532C147.476 57.8907 146.949 56.058 146.857 53.119C146.815 50.0698 147.187 48.0668 148.157 45.7502C149.135 43.5589 150.175 42.0996 151.777 40.6393C157.127 35.8806 162.875 38.2348 164.23 38.8945C165.817 39.6832 166.343 39.8591 166.323 39.5795C166.299 39.2421 167.262 38.3405 167.863 38.0751C168.311 37.9658 168.996 37.927 170.199 38.084C173.358 38.49 174.9 39.3303 175.989 41.1715C176.635 42.2207 176.651 42.4424 177.06 45.7562C177.528 50.0252 178.259 62.6761 178.177 64.7942C177.97 68.2971 176.938 68.9128 172.361 68.5976C171.505 68.542 170.586 68.4327 170.24 68.3313ZM163.707 55.5779C165.806 53.8886 165.136 48.5391 162.707 47.219C161.758 46.6662 161.091 46.8297 160.242 47.7038C159.506 48.531 159.291 49.4667 159.428 51.3949C159.532 52.8604 159.605 53.204 160.194 54.2765C160.65 55.1066 161.029 55.5351 161.441 55.7385C162.262 56.1066 163.112 56.0754 163.707 55.5779Z"/>
</mask>
<path d="M39.159 78.6758C37.1118 78.6368 36.6188 77.2861 36.6798 71.7201C36.8451 62.0191 39.6079 49.5953 42.9678 43.2723C45.0269 39.3766 47.3396 37.5559 51.4835 36.5549C54.9518 35.7278 57.2543 36.0879 59.6435 37.808C60.8467 38.6529 61.2782 39.1359 62.6866 41.3712C65.4318 45.5175 67.0992 49.9049 68.6831 56.9434C69.4387 60.3587 70.1225 65.2227 70.0582 66.7775C70.0364 68.7945 69.8467 69.399 68.9606 70.4307C67.9049 71.6682 66.7444 72.109 63.0971 72.8713C59.856 73.6241 58.7116 73.6084 57.4009 72.7517C56.3829 72.0583 56.2125 71.2953 56.1809 67.5671C56.143 63.8878 55.8468 60.3916 55.4886 59.4384C54.7996 57.6462 53.1258 57.4063 51.9893 59.0081C51.0121 60.3951 50.9007 61.2847 51.0294 66.3819C51.2043 71.1754 51.0925 72.8789 50.437 74.0203C49.9807 74.8278 48.6372 75.9694 47.4835 76.5066C45.942 77.1778 40.2456 78.6957 39.159 78.6758ZM54.0206 50.7541C56.0787 48.4863 54.7724 43.7245 52.3709 44.292C50.1891 44.8148 49.5041 50.4637 51.5129 51.4647C52.2771 51.8563 53.3398 51.5388 54.0206 50.7541ZM76.4941 70.2263C75.1892 70.2703 74.6046 70.0889 73.7676 69.4893C72.457 68.6326 72.4652 68.7483 71.6923 57.0208C70.9979 46.5377 70.9733 43.7296 71.4044 42.5654C72.1795 40.6501 75.4843 39.1563 78.1862 39.5462C79.5075 39.7336 80.8903 40.7886 81.4254 41.9134C81.5623 42.2041 81.6985 42.4851 81.825 42.7668C81.9974 42.4639 82.169 42.1514 82.331 41.8395C82.9322 40.6148 83.617 39.8881 84.815 39.154C87.1047 37.6934 89.9719 38.0909 92.1661 40.0671C92.5088 40.3916 92.8515 40.7162 93.1943 41.0407C93.5299 40.5809 93.8566 40.1314 94.1832 39.6819C95.5822 37.8194 96.5658 37.207 98.7123 37.0065C100.128 36.8771 100.531 36.9648 101.41 37.3386C103.528 38.2446 104.843 39.9827 105.484 42.6018C105.579 42.9731 105.674 43.4992 105.787 44.1404C106.403 47.9143 107.183 55.7656 107.257 59.5489C107.311 61.948 107.287 62.9865 107.171 63.6729C107.107 63.9972 107.028 64.2451 106.922 64.5239C106.678 65.0547 106.323 65.6419 106.05 65.8938C105.353 66.4566 103.619 66.8702 100.908 67.1689C98.877 67.3613 98.4211 67.3548 97.6039 67.0348C96.313 66.5934 95.8333 66.2495 95.371 65.3327C94.855 64.4778 94.6463 62.2156 94.83 60.0225C95.032 57.2661 95.0577 52.0224 94.8199 51.1284C94.6339 50.0079 94.2595 49.6469 93.471 49.7318C93.0771 49.7791 92.8064 49.9243 92.6037 50.3456C92.3032 50.8901 92.3394 51.4011 92.7101 55.8125C93.1492 61.1881 93.1152 61.5296 91.9813 62.3463C91.1099 62.9022 88.6225 63.2142 87.857 62.8033C86.6818 62.218 86.5306 61.7249 86.4836 57.0967C86.4056 52.713 86.2058 51.5353 85.6076 51.1611C84.7761 50.6386 84.1891 51.2422 84.0113 52.6985C83.9523 53.5069 84.0841 55.3676 84.5419 59.366C85.3133 66.2876 85.2517 66.9218 83.8606 68.2122C82.6336 69.3552 79.4462 70.1818 76.4941 70.2263ZM113.925 66.1399C112.61 66.0393 112.021 65.7904 111.177 65.0944C109.856 64.0931 109.864 64.2088 109.092 52.491C108.407 42.0072 108.375 39.2286 108.81 38.1222C109.593 36.313 112.926 35.2145 115.649 35.9129C116.982 36.2545 118.375 37.4638 118.914 38.6368C119.051 38.9372 119.189 39.2375 119.326 39.5281C119.49 39.2452 119.663 38.952 119.827 38.669C120.434 37.5215 121.125 36.8814 122.333 36.292C124.642 35.111 127.533 35.8363 129.744 38.0535C130.089 38.407 130.434 38.7701 130.789 39.1325C131.119 38.7216 131.448 38.3106 131.778 37.8997C133.199 36.2196 134.191 35.723 136.355 35.7731C137.772 35.8084 138.188 35.9339 139.075 36.4137C141.201 37.5614 142.525 39.4345 143.17 42.1115C143.808 44.6825 144.858 54.7141 144.947 59.1164C145.021 62.6187 144.944 63.1765 144.606 64.0143C144.36 64.5065 144.002 65.0551 143.736 65.2678C143.024 65.7542 141.275 65.9557 138.542 65.9459C136.494 65.8972 136.034 65.8329 135.211 65.4262C133.919 64.8394 133.435 64.4377 132.97 63.4727C132.45 62.5696 132.231 60.2984 132.418 58.1535C132.623 55.4357 132.652 50.2401 132.423 49.3262C132.226 48.1968 131.859 47.7965 131.063 47.785C130.656 47.7848 130.384 47.901 130.189 48.2927C129.876 48.7994 129.912 49.3103 130.283 53.7314C130.722 59.107 130.688 59.4485 129.544 60.1206C128.665 60.5705 126.167 60.5925 125.386 60.0956C124.201 59.3753 124.049 58.8725 124.005 54.2829C123.928 49.9184 123.728 48.7312 123.125 48.2894C122.287 47.6802 121.704 48.206 121.514 49.6244C121.464 50.4225 121.597 52.2928 122.045 56.3015C122.829 63.261 122.757 63.8863 121.354 65.0031C120.116 65.9919 116.902 66.4425 113.925 66.1399ZM170.24 68.3313C168.152 67.8591 167.137 67.0687 166.511 65.4852C166.241 64.952 166.043 64.4816 166.039 64.4238C165.98 64.4182 165.6 64.6583 165.052 64.9879C163.748 65.8651 161.694 66.5532 160.056 66.6887C155.803 66.9707 151.185 64.4202 148.917 60.4532C147.476 57.8907 146.949 56.058 146.857 53.119C146.815 50.0698 147.187 48.0668 148.157 45.7502C149.135 43.5589 150.175 42.0996 151.777 40.6393C157.127 35.8806 162.875 38.2348 164.23 38.8945C165.817 39.6832 166.343 39.8591 166.323 39.5795C166.299 39.2421 167.262 38.3405 167.863 38.0751C168.311 37.9658 168.996 37.927 170.199 38.084C173.358 38.49 174.9 39.3303 175.989 41.1715C176.635 42.2207 176.651 42.4424 177.06 45.7562C177.528 50.0252 178.259 62.6761 178.177 64.7942C177.97 68.2971 176.938 68.9128 172.361 68.5976C171.505 68.542 170.586 68.4327 170.24 68.3313ZM163.707 55.5779C165.806 53.8886 165.136 48.5391 162.707 47.219C161.758 46.6662 161.091 46.8297 160.242 47.7038C159.506 48.531 159.291 49.4667 159.428 51.3949C159.532 52.8604 159.605 53.204 160.194 54.2765C160.65 55.1066 161.029 55.5351 161.441 55.7385C162.262 56.1066 163.112 56.0754 163.707 55.5779Z" fill="white"/>
<path d="M39.159 78.6758C37.1118 78.6368 36.6188 77.2861 36.6798 71.7201C36.8451 62.0191 39.6079 49.5953 42.9678 43.2723C45.0269 39.3766 47.3396 37.5559 51.4835 36.5549C54.9518 35.7278 57.2543 36.0879 59.6435 37.808C60.8467 38.6529 61.2782 39.1359 62.6866 41.3712C65.4318 45.5175 67.0992 49.9049 68.6831 56.9434C69.4387 60.3587 70.1225 65.2227 70.0582 66.7775C70.0364 68.7945 69.8467 69.399 68.9606 70.4307C67.9049 71.6682 66.7444 72.109 63.0971 72.8713C59.856 73.6241 58.7116 73.6084 57.4009 72.7517C56.3829 72.0583 56.2125 71.2953 56.1809 67.5671C56.143 63.8878 55.8468 60.3916 55.4886 59.4384C54.7996 57.6462 53.1258 57.4063 51.9893 59.0081C51.0121 60.3951 50.9007 61.2847 51.0294 66.3819C51.2043 71.1754 51.0925 72.8789 50.437 74.0203C49.9807 74.8278 48.6372 75.9694 47.4835 76.5066C45.942 77.1778 40.2456 78.6957 39.159 78.6758ZM54.0206 50.7541C56.0787 48.4863 54.7724 43.7245 52.3709 44.292C50.1891 44.8148 49.5041 50.4637 51.5129 51.4647C52.2771 51.8563 53.3398 51.5388 54.0206 50.7541ZM76.4941 70.2263C75.1892 70.2703 74.6046 70.0889 73.7676 69.4893C72.457 68.6326 72.4652 68.7483 71.6923 57.0208C70.9979 46.5377 70.9733 43.7296 71.4044 42.5654C72.1795 40.6501 75.4843 39.1563 78.1862 39.5462C79.5075 39.7336 80.8903 40.7886 81.4254 41.9134C81.5623 42.2041 81.6985 42.4851 81.825 42.7668C81.9974 42.4639 82.169 42.1514 82.331 41.8395C82.9322 40.6148 83.617 39.8881 84.815 39.154C87.1047 37.6934 89.9719 38.0909 92.1661 40.0671C92.5088 40.3916 92.8515 40.7162 93.1943 41.0407C93.5299 40.5809 93.8566 40.1314 94.1832 39.6819C95.5822 37.8194 96.5658 37.207 98.7123 37.0065C100.128 36.8771 100.531 36.9648 101.41 37.3386C103.528 38.2446 104.843 39.9827 105.484 42.6018C105.579 42.9731 105.674 43.4992 105.787 44.1404C106.403 47.9143 107.183 55.7656 107.257 59.5489C107.311 61.948 107.287 62.9865 107.171 63.6729C107.107 63.9972 107.028 64.2451 106.922 64.5239C106.678 65.0547 106.323 65.6419 106.05 65.8938C105.353 66.4566 103.619 66.8702 100.908 67.1689C98.877 67.3613 98.4211 67.3548 97.6039 67.0348C96.313 66.5934 95.8333 66.2495 95.371 65.3327C94.855 64.4778 94.6463 62.2156 94.83 60.0225C95.032 57.2661 95.0577 52.0224 94.8199 51.1284C94.6339 50.0079 94.2595 49.6469 93.471 49.7318C93.0771 49.7791 92.8064 49.9243 92.6037 50.3456C92.3032 50.8901 92.3394 51.4011 92.7101 55.8125C93.1492 61.1881 93.1152 61.5296 91.9813 62.3463C91.1099 62.9022 88.6225 63.2142 87.857 62.8033C86.6818 62.218 86.5306 61.7249 86.4836 57.0967C86.4056 52.713 86.2058 51.5353 85.6076 51.1611C84.7761 50.6386 84.1891 51.2422 84.0113 52.6985C83.9523 53.5069 84.0841 55.3676 84.5419 59.366C85.3133 66.2876 85.2517 66.9218 83.8606 68.2122C82.6336 69.3552 79.4462 70.1818 76.4941 70.2263ZM113.925 66.1399C112.61 66.0393 112.021 65.7904 111.177 65.0944C109.856 64.0931 109.864 64.2088 109.092 52.491C108.407 42.0072 108.375 39.2286 108.81 38.1222C109.593 36.313 112.926 35.2145 115.649 35.9129C116.982 36.2545 118.375 37.4638 118.914 38.6368C119.051 38.9372 119.189 39.2375 119.326 39.5281C119.49 39.2452 119.663 38.952 119.827 38.669C120.434 37.5215 121.125 36.8814 122.333 36.292C124.642 35.111 127.533 35.8363 129.744 38.0535C130.089 38.407 130.434 38.7701 130.789 39.1325C131.119 38.7216 131.448 38.3106 131.778 37.8997C133.199 36.2196 134.191 35.723 136.355 35.7731C137.772 35.8084 138.188 35.9339 139.075 36.4137C141.201 37.5614 142.525 39.4345 143.17 42.1115C143.808 44.6825 144.858 54.7141 144.947 59.1164C145.021 62.6187 144.944 63.1765 144.606 64.0143C144.36 64.5065 144.002 65.0551 143.736 65.2678C143.024 65.7542 141.275 65.9557 138.542 65.9459C136.494 65.8972 136.034 65.8329 135.211 65.4262C133.919 64.8394 133.435 64.4377 132.97 63.4727C132.45 62.5696 132.231 60.2984 132.418 58.1535C132.623 55.4357 132.652 50.2401 132.423 49.3262C132.226 48.1968 131.859 47.7965 131.063 47.785C130.656 47.7848 130.384 47.901 130.189 48.2927C129.876 48.7994 129.912 49.3103 130.283 53.7314C130.722 59.107 130.688 59.4485 129.544 60.1206C128.665 60.5705 126.167 60.5925 125.386 60.0956C124.201 59.3753 124.049 58.8725 124.005 54.2829C123.928 49.9184 123.728 48.7312 123.125 48.2894C122.287 47.6802 121.704 48.206 121.514 49.6244C121.464 50.4225 121.597 52.2928 122.045 56.3015C122.829 63.261 122.757 63.8863 121.354 65.0031C120.116 65.9919 116.902 66.4425 113.925 66.1399ZM170.24 68.3313C168.152 67.8591 167.137 67.0687 166.511 65.4852C166.241 64.952 166.043 64.4816 166.039 64.4238C165.98 64.4182 165.6 64.6583 165.052 64.9879C163.748 65.8651 161.694 66.5532 160.056 66.6887C155.803 66.9707 151.185 64.4202 148.917 60.4532C147.476 57.8907 146.949 56.058 146.857 53.119C146.815 50.0698 147.187 48.0668 148.157 45.7502C149.135 43.5589 150.175 42.0996 151.777 40.6393C157.127 35.8806 162.875 38.2348 164.23 38.8945C165.817 39.6832 166.343 39.8591 166.323 39.5795C166.299 39.2421 167.262 38.3405 167.863 38.0751C168.311 37.9658 168.996 37.927 170.199 38.084C173.358 38.49 174.9 39.3303 175.989 41.1715C176.635 42.2207 176.651 42.4424 177.06 45.7562C177.528 50.0252 178.259 62.6761 178.177 64.7942C177.97 68.2971 176.938 68.9128 172.361 68.5976C171.505 68.542 170.586 68.4327 170.24 68.3313ZM163.707 55.5779C165.806 53.8886 165.136 48.5391 162.707 47.219C161.758 46.6662 161.091 46.8297 160.242 47.7038C159.506 48.531 159.291 49.4667 159.428 51.3949C159.532 52.8604 159.605 53.204 160.194 54.2765C160.65 55.1066 161.029 55.5351 161.441 55.7385C162.262 56.1066 163.112 56.0754 163.707 55.5779Z" stroke="url(#paint5_linear_2016_1184)" stroke-width="15.4642" mask="url(#path-22-outside-9_2016_1184)"/>
<defs>
<linearGradient id="paint0_linear_2016_1184" x1="210.874" y1="86.925" x2="220.037" y2="9.37949" gradientUnits="userSpaceOnUse">
<stop stop-color="#10566B"/>
<stop offset="0.32" stop-color="#29738A"/>
<stop offset="0.7464" stop-color="#38879F"/>
<stop offset="1" stop-color="#2F90AE"/>
</linearGradient>
<linearGradient id="paint1_linear_2016_1184" x1="220.502" y1="5.52719" x2="210.431" y2="90.7554" gradientUnits="userSpaceOnUse">
<stop stop-color="#387C87"/>
<stop offset="1" stop-color="#10566B"/>
</linearGradient>
<linearGradient id="paint2_linear_2016_1184" x1="210.874" y1="86.925" x2="220.037" y2="9.37949" gradientUnits="userSpaceOnUse">
<stop stop-color="#10566B"/>
<stop offset="0.32" stop-color="#29738A"/>
<stop offset="0.7464" stop-color="#38879F"/>
<stop offset="1" stop-color="#2F90AE"/>
</linearGradient>
<linearGradient id="paint3_linear_2016_1184" x1="220.502" y1="5.52719" x2="210.431" y2="90.7554" gradientUnits="userSpaceOnUse">
<stop stop-color="#387C87"/>
<stop offset="1" stop-color="#10566B"/>
</linearGradient>
<linearGradient id="paint4_linear_2016_1184" x1="137.105" y1="78.834" x2="137.105" y2="160.499" gradientUnits="userSpaceOnUse">
<stop stop-color="#10566B"/>
<stop offset="1" stop-color="#387C87"/>
</linearGradient>
<linearGradient id="paint5_linear_2016_1184" x1="122.069" y1="66.1496" x2="127.466" y2="23.0401" gradientUnits="userSpaceOnUse">
<stop stop-color="#10566B"/>
<stop offset="1" stop-color="#387C87"/>
</linearGradient>
</defs>
</svg>
