<svg width="176" height="271" viewBox="0 0 176 271" fill="none" xmlns="http://www.w3.org/2000/svg">
<path d="M66.5991 106.302L66.9667 123.212H97.9679L97.4777 106.67L66.5991 106.302Z" fill="#DF8291"/>
<path d="M126.886 244.766C126.886 244.766 140.243 242.928 149.433 257.755C149.188 264.249 149.188 264.249 149.188 264.249C149.188 264.249 139.875 268.905 124.068 267.558C108.261 266.087 97.4781 262.044 97.4781 262.044L96.7429 249.79C96.7429 249.79 107.893 243.296 126.886 244.766Z" fill="black"/>
<path d="M130.563 261.553C120.025 261.553 98.0911 256.039 97.1108 255.794C96.8657 255.794 96.7432 255.549 96.8657 255.304C96.8657 255.059 97.1108 254.937 97.3559 255.059C97.6009 255.182 122.475 261.308 132.156 260.696C141.836 260.083 149.433 257.387 149.555 257.387C149.8 257.265 150.046 257.387 150.046 257.632C150.168 257.877 150.046 258.122 149.8 258.122C149.678 258.122 142.081 260.941 132.156 261.553C131.543 261.553 131.053 261.553 130.563 261.553Z" fill="white"/>
<path d="M126.887 244.766C126.887 244.766 127.744 244.644 129.337 244.766C125.539 246.849 119.412 250.403 117.819 252.241C115.491 254.691 105.688 257.877 102.625 247.339C107.649 245.624 115.981 243.908 126.887 244.766Z" fill="#F7F7F7"/>
<path d="M48.4645 247.094C48.4645 247.094 35.4759 245.991 27.3887 261.308C28.0013 267.802 28.0013 267.802 28.0013 267.802C28.0013 267.802 37.1914 271.968 52.3856 269.64C67.4573 267.312 77.6277 262.656 77.6277 262.656L77.7502 245.991C77.7502 245.991 66.7221 244.521 48.4645 247.094Z" fill="black"/>
<path d="M44.5436 264.126C34.9859 264.126 27.3888 261.798 27.2663 261.676C27.0212 261.553 26.8987 261.43 27.0212 261.185C27.1438 260.94 27.2663 260.818 27.5113 260.94C27.6339 260.94 34.9859 263.268 44.4211 263.268H44.5436C53.9787 263.268 77.3827 255.794 77.5053 255.671C77.7504 255.549 77.8729 255.671 77.9954 255.916C78.1179 256.161 77.9954 256.284 77.7504 256.407C76.8926 256.774 54.1013 264.126 44.5436 264.126Z" fill="white"/>
<path d="M48.4644 247.094C48.4644 247.094 47.6066 246.971 46.1362 247.216C49.9348 249.177 55.939 252.363 57.6544 253.956C59.9826 256.284 69.6628 258.857 71.9909 248.197C66.967 246.971 58.8798 245.623 48.4644 247.094Z" fill="#F7F7F7"/>
<path d="M53.2434 196.978C53.2434 196.978 49.4448 219.769 48.9547 222.22C46.6265 229.817 43.1956 245.501 43.1956 245.501C43.1956 245.501 63.6588 251.26 78.3629 249.3L86.9403 211.682L94.5374 249.79C94.5374 249.79 118.309 252.608 130.685 239.375C130.685 239.375 125.906 219.034 123.088 216.216C121.127 202.002 116.839 193.424 116.839 193.424L101.154 189.381L53.2434 196.978Z" fill="#FDFDFD"/>
<path d="M11.2143 173.941L-3.12224 182.641C-4.34758 183.377 -4.71518 184.847 -4.10251 186.072C-3.48984 187.298 -2.14195 187.788 -0.794075 187.42L10.234 183.499L5.9453 188.278C5.08756 189.258 5.33263 190.851 6.43543 191.586C7.17064 192.076 8.27345 191.954 8.88612 191.341L12.3171 188.4L12.072 191.586C11.9495 192.934 13.0523 194.037 14.4002 194.037C15.2579 194.037 16.1156 193.547 16.4832 192.812L21.1395 184.112L21.8747 178.353L11.2143 173.941Z" fill="#E47891"/>
<path d="M33.0251 175.044C33.0251 175.044 29.104 179.7 29.104 182.519C29.104 184.112 28.7364 187.42 28.4913 190.238C28.2462 192.444 26.1632 194.037 23.9576 193.669C22.1195 193.424 20.7717 191.954 20.6491 190.116C20.4041 186.93 19.9139 182.274 19.4238 180.068C18.6886 176.515 3.73941 178.598 3.73941 178.598L-1.77462 179.088C-3.73517 179.21 -5.45065 177.985 -5.81826 176.024C-6.18586 174.064 -5.08305 172.103 -3.12251 171.491C1.41126 170.143 9.13091 167.937 10.6013 167.937C12.6844 167.937 20.8942 160.095 20.8942 160.095L33.0251 175.044Z" fill="#F39091"/>
<path d="M143.183 95.7643L147.472 82.8982C148.085 81.1827 149.8 80.0799 151.638 80.325C153.721 80.6926 155.069 82.6532 154.702 84.7362L153.966 88.5348L165.73 81.3053C167.2 80.4475 169.161 80.9377 169.896 82.5306C170.509 83.756 170.141 85.3489 169.038 86.2066L161.564 92.0883L171.244 88.1672C172.837 87.5545 174.675 88.2897 175.287 90.0052C175.777 91.3531 175.165 92.946 173.94 93.6812L165.362 98.4601L172.224 97.9699C173.817 97.8474 175.287 99.0727 175.532 100.666C175.778 102.259 174.675 103.729 173.082 104.097L165.73 105.812L171.366 107.528C172.714 107.895 173.449 109.243 173.082 110.591C172.714 111.816 171.611 112.551 170.386 112.429L162.421 111.449C162.421 111.449 158.01 118.801 148.452 116.35L140.978 97.9699L143.183 95.7643Z" fill="#F39091"/>
<path d="M153.966 101.401C153.844 101.401 153.844 101.401 153.721 101.279C153.476 101.156 153.476 100.911 153.599 100.666C156.662 96.1322 153.476 88.7801 153.476 88.7801C153.354 88.5351 153.476 88.29 153.721 88.1675C153.966 88.0449 154.211 88.1675 154.334 88.4125C154.456 88.7801 157.642 96.2547 154.334 101.156C154.334 101.401 154.211 101.401 153.966 101.401Z" fill="black"/>
<path d="M163.891 107.16H163.769C163.524 107.038 163.401 106.793 163.524 106.548C167.445 97.7252 158.622 89.638 158.5 89.638C158.377 89.5154 158.255 89.2703 158.5 89.0253C158.622 88.9027 158.867 88.7802 159.113 89.0253C159.235 89.1478 168.548 97.6027 164.259 106.915C164.136 107.038 164.014 107.16 163.891 107.16Z" fill="black"/>
<path d="M62.4333 111.817L63.4136 119.169L85.9599 121.129C85.9599 121.129 82.1613 114.757 76.7698 113.532C71.2558 112.184 62.4333 111.817 62.4333 111.817Z" fill="#FC6049"/>
<path d="M86.2046 121.007C86.2046 121.007 90.9834 110.836 101.399 110.591C101.766 115.37 101.766 115.37 101.766 115.37C101.766 115.37 98.5805 118.433 86.2046 121.007Z" fill="#FC6049"/>
<path d="M63.4137 119.169C63.4137 119.169 53.2434 119.169 43.8082 127.133C34.2506 135.098 11.4592 160.463 11.4592 160.463L33.6379 182.029L54.2236 160.463L51.0377 178.23C51.0377 178.23 42.4604 191.831 46.2589 199.796C63.6588 207.148 91.9642 213.152 122.965 199.184C122.965 199.184 117.941 168.795 116.348 162.423C114.756 156.051 115.123 144.656 113.163 140.49C113.163 140.49 150.535 123.948 155.069 121.497L141.713 91.1084C141.713 91.1084 116.226 107.528 112.55 109.856C104.953 114.635 95.15 119.046 95.15 119.046L86.3276 121.252L63.4137 119.169Z" fill="#FC6049"/>
<path d="M65.8641 194.282C65.8641 194.282 66.2317 192.689 68.4373 185.704C70.6429 178.72 68.8049 176.514 68.0697 171.49C67.457 166.467 68.0697 167.324 69.295 158.502C70.5204 149.679 61.4528 138.406 61.4528 138.406C61.4528 145.758 60.105 153.11 60.105 153.11L53.8557 162.178L51.0374 178.107C51.0374 178.107 42.46 191.709 46.2586 199.673C55.4487 203.594 67.7021 207.025 81.7935 207.393C65.8641 202.982 65.8641 194.282 65.8641 194.282Z" fill="#F7462C"/>
<path d="M80.4458 122.967C80.4458 122.967 83.2641 140.122 84.2444 147.964C92.4542 147.964 92.4542 147.964 92.4542 147.964C92.4542 147.964 89.8809 128.971 89.0232 121.987C89.0232 121.987 87.1852 123.825 80.4458 122.967Z" fill="#F7462C"/>
<path d="M149.677 109.611C149.677 109.611 131.542 121.006 126.519 124.192C121.495 127.378 110.344 128.358 110.344 128.358L113.162 140.367L155.069 121.374L149.677 109.611Z" fill="#F7462C"/>
<path d="M114.388 146.861C114.143 146.861 114.02 146.739 114.02 146.493C112.795 136.813 107.771 122.967 107.649 122.844C107.526 122.599 107.649 122.354 107.894 122.354C108.139 122.232 108.384 122.354 108.384 122.599C108.384 122.722 113.53 136.691 114.756 146.493C114.878 146.616 114.756 146.739 114.388 146.861Z" fill="black"/>
<path d="M45.7684 168.672C45.6458 168.672 45.5233 168.672 45.4007 168.55C45.2782 168.427 45.2782 168.06 45.4007 167.937C45.5233 167.815 56.1837 158.38 58.8795 152.498C61.5752 146.739 60.4725 143.675 60.4725 143.675C60.3499 143.43 60.4724 143.185 60.7175 143.185C60.9626 143.063 61.2077 143.185 61.2077 143.43C61.2077 143.553 62.5555 146.861 59.6147 152.988C56.7964 158.992 46.2585 168.305 45.8909 168.672C46.0134 168.672 45.8909 168.672 45.7684 168.672Z" fill="black"/>
<path d="M54.2235 160.707C54.101 160.707 53.8559 160.585 53.8559 160.462C53.7334 160.217 53.8559 159.972 54.101 159.85C54.2235 159.85 61.6981 156.664 66.1094 153.233C66.3544 153.11 66.5995 153.11 66.722 153.355C66.8446 153.478 66.8445 153.846 66.5995 153.968C62.1883 157.399 54.7137 160.585 54.4686 160.707C54.2235 160.707 54.2235 160.707 54.2235 160.707Z" fill="black"/>
<path d="M83.3868 123.702C76.5249 123.702 63.9038 119.659 63.2912 119.536C63.0461 119.414 62.9236 119.169 63.0461 119.046C63.1687 118.801 63.4137 118.678 63.5363 118.801C63.6588 118.801 78.4854 123.58 84.6121 122.845C90.2487 122.232 99.6838 118.066 101.399 117.331L101.154 110.591C101.154 110.346 101.277 110.101 101.522 110.101C101.767 110.101 102.012 110.224 102.012 110.469L102.38 117.453C102.38 117.576 102.257 117.821 102.135 117.821C101.644 118.066 91.229 122.967 84.8572 123.58C84.2445 123.702 83.7544 123.702 83.3868 123.702Z" fill="black"/>
<path d="M84.2444 115.983L82.529 116.105C60.1052 117.085 41.1124 99.563 40.2547 77.1393L39.5195 57.7789C38.7843 41.1142 51.7729 27.0228 68.5601 26.2876L90.9838 25.3073C107.648 24.5721 121.74 37.5607 122.475 54.3479L123.21 73.7083C124.191 96.1321 106.668 115.002 84.2444 115.983Z" fill="#F39091"/>
<path d="M120.514 62.5576C120.514 62.5576 134.606 57.1661 135.218 71.9928C135.831 86.6969 119.656 88.2898 119.656 88.2898L120.514 62.5576Z" fill="#F39091"/>
<path d="M108.506 26.4103C108.506 26.4103 111.937 39.1539 120.392 48.3439C121.372 59.7396 120.759 68.8072 120.759 68.8072L125.661 61.4551L128.969 62.3128C128.969 62.3128 129.582 54.2256 126.396 47.2411C131.297 50.427 131.297 50.427 131.297 50.427C131.297 50.427 126.396 34.0075 116.593 27.7582C106.913 21.2639 108.506 26.4103 108.506 26.4103Z" fill="black"/>
<path d="M43.1952 65.8661C43.1952 65.8661 26.1629 60.9648 26.8981 78.2421C27.6333 95.5194 46.6261 95.887 46.6261 95.887L43.1952 65.8661Z" fill="#F39091"/>
<path d="M32.0444 76.0367C32.0444 76.0367 40.9894 72.2381 41.7246 87.8" stroke="black" stroke-width="1.22534" stroke-miterlimit="10" stroke-linecap="round" stroke-linejoin="round"/>
<path d="M34.4951 83.6339C34.4951 83.6339 33.7599 76.0368 40.7444 81.1832" stroke="black" stroke-width="1.22534" stroke-miterlimit="10" stroke-linecap="round" stroke-linejoin="round"/>
<path d="M58.757 63.1704C58.2669 63.1704 57.7767 62.9254 57.4091 62.5578C56.7965 61.8225 56.919 60.7197 57.6542 60.2296C57.8992 60.1071 63.2908 55.8184 71.378 58.6367C72.2358 59.0043 72.7259 59.862 72.3583 60.8423C71.9907 61.7 71.133 62.1901 70.1527 61.8225C64.026 59.6169 59.8598 62.6803 59.7373 62.8028C59.4922 63.0479 59.1246 63.1704 58.757 63.1704Z" fill="black"/>
<path d="M94.7819 59.2495C94.2918 59.2495 93.8016 59.0045 93.434 58.6369C92.8214 57.9017 92.9439 56.7988 93.6791 56.3087C93.9242 56.1862 99.3157 51.8975 107.403 54.7158C108.261 55.0834 108.751 55.9411 108.383 56.9214C108.016 57.7791 107.158 58.2693 106.178 57.9016C100.051 55.696 95.8847 58.7594 95.7622 58.8819C95.5171 59.127 95.1495 59.2495 94.7819 59.2495Z" fill="black"/>
<path d="M86.2046 81.1833C85.9596 81.1833 85.5919 81.0608 85.4694 80.8157C85.2243 80.4481 85.3469 79.9579 85.7145 79.7129L89.8807 77.2622L83.8765 73.4636C83.5089 73.2186 83.3863 72.7284 83.6314 72.2383C83.8765 71.8707 84.3666 71.7482 84.7342 71.9932L91.9637 76.527C92.2088 76.6495 92.3313 77.0171 92.3313 77.2622C92.3313 77.5073 92.2088 77.8749 91.9637 77.9974L86.5722 81.1833C86.4497 81.0608 86.3272 81.1833 86.2046 81.1833Z" fill="black"/>
<path d="M64.5159 71.5029C64.5159 71.5029 67.5792 68.072 72.8482 70.5227" stroke="black" stroke-width="2.45068" stroke-miterlimit="10" stroke-linecap="round" stroke-linejoin="round"/>
<path d="M95.2725 67.459C95.2725 67.459 98.3358 64.028 103.605 66.4787" stroke="black" stroke-width="2.45068" stroke-miterlimit="10" stroke-linecap="round" stroke-linejoin="round"/>
<path d="M71.7454 85.7169C71.7454 85.7169 76.5242 92.2112 86.572 91.5986C96.6198 90.8634 99.3155 84.0015 99.3155 84.0015" stroke="black" stroke-width="2.45068" stroke-miterlimit="10" stroke-linecap="round" stroke-linejoin="round"/>
<path d="M81.7932 96.745C81.7932 96.745 87.6749 96.3774 89.3903 96.3774" stroke="black" stroke-width="2.45068" stroke-miterlimit="10" stroke-linecap="round" stroke-linejoin="round"/>
<path d="M50.7925 34.4973C50.7925 34.4973 54.4685 53.8577 46.2587 62.8027C46.7488 76.1589 46.7488 76.1589 46.7488 76.1589L38.6616 65.0083C38.6616 65.0083 30.5743 65.8661 29.7166 68.6843C21.7519 59.4943 31.3095 37.6832 33.6377 37.0705C36.0884 36.5804 50.7925 34.4973 50.7925 34.4973Z" fill="black"/>
<path d="M28.8589 45.8931C28.8589 45.8931 71.1332 20.7736 122.598 33.027C122.598 33.027 112.917 -6.06136 68.9276 1.90336C25.0603 9.86808 28.8589 45.8931 28.8589 45.8931Z" fill="#F7F7F7"/>
<path opacity="0.31" d="M57.6548 93.3138C62.3243 93.3138 66.1097 89.8576 66.1097 85.5942C66.1097 81.3307 62.3243 77.8745 57.6548 77.8745C52.9853 77.8745 49.2 81.3307 49.2 85.5942C49.2 89.8576 52.9853 93.3138 57.6548 93.3138Z" fill="#E66C85"/>
<path opacity="0.31" d="M120.269 80.4478C120.269 84.2464 116.838 87.4323 112.672 87.4323C108.506 87.4323 105.075 84.3689 105.075 80.4478C105.075 76.6493 108.506 73.4634 112.672 73.4634C116.838 73.4634 120.269 76.5267 120.269 80.4478Z" fill="#E66C85"/>
<path d="M122.475 54.2253C122.475 54.2253 123.21 67.9492 122.72 76.6491C122.23 85.349 117.206 112.797 84.2446 115.86" stroke="black" stroke-width="2.45068" stroke-miterlimit="10" stroke-linecap="round" stroke-linejoin="round"/>
</svg>
